<?xml version="1.0" encoding="UTF-8" standalone="no"?>
<!DOCTYPE svg PUBLIC "-//W3C//DTD SVG 1.1//EN" "http://www.w3.org/Graphics/SVG/1.1/DTD/svg11.dtd">
<svg width="100%" height="100%" viewBox="0 0 100 100" version="1.1" xmlns="http://www.w3.org/2000/svg" xmlns:xlink="http://www.w3.org/1999/xlink" xml:space="preserve" style="fill-rule:evenodd;clip-rule:evenodd;stroke-linejoin:round;stroke-miterlimit:1.41421;">
    <g transform="matrix(1,0,0,1,-28.8535,39.8509)">
        <path d="M104.311,20.968C107.729,14.686 110.659,6.727 113.1,-2.909L119.594,-0.125C115.883,11.951 111.586,21.929 106.703,29.806C109.796,38.4 112.188,42.697 113.881,42.697C114.858,42.697 116.192,37.83 117.885,28.097L124.184,32.882C121.384,46.684 118.455,53.586 115.395,53.586C113.832,53.586 112.009,52.283 109.926,49.679C106.769,45.903 104.164,41.541 102.114,36.593C96.905,43.364 90.232,49.598 82.094,55.295L77.309,49.777C86.456,43.95 93.862,37.017 99.526,28.976C97.215,20.317 95.506,7.589 94.399,-9.207L62.612,-9.207L62.612,-2.713L52.407,-2.713L52.407,28.39C56.899,26.73 60.333,25.428 62.709,24.484L63.491,30.295C54.701,34.559 45.343,38.319 35.414,41.574L32.924,34.396C37.872,33.127 42.104,31.89 45.619,30.685L45.619,-2.713L34.438,-2.713L34.438,-9.305L45.619,-9.305L45.619,-32.401L52.407,-32.401L52.407,-9.305L60.805,-9.305L60.805,-15.604L94.106,-15.604L93.91,-21.903C93.683,-29.097 93.552,-33.459 93.52,-34.989L100.307,-34.989C100.405,-26.818 100.6,-20.487 100.893,-15.995L122.914,-15.995L122.914,-9.598L101.186,-9.598L101.284,-9.11C102.097,4.237 103.106,14.263 104.311,20.968ZM90.346,-1.395L90.346,22.824L65.932,22.824L65.932,-1.395L90.346,-1.395ZM72.133,4.416L72.133,17.013L84.145,17.013L84.145,4.416L72.133,4.416ZM60.219,35.324C71.026,33.371 81.996,30.539 93.129,26.828L93.325,32.834C84.959,36.121 74.754,39.246 62.709,42.209L60.219,35.324ZM113.637,-18.875C110.805,-23.563 108.038,-27.371 105.336,-30.301L111.342,-33.28C114.011,-30.415 116.778,-26.818 119.643,-22.489L113.637,-18.875Z" style="fill-rule:nonzero;"/>
    </g>
</svg>
