<?xml version="1.0" encoding="UTF-8" standalone="no"?>
<!DOCTYPE svg PUBLIC "-//W3C//DTD SVG 1.1//EN" "http://www.w3.org/Graphics/SVG/1.1/DTD/svg11.dtd">
<svg width="100%" height="100%" viewBox="0 0 100 100" version="1.1" xmlns="http://www.w3.org/2000/svg" xmlns:xlink="http://www.w3.org/1999/xlink" xml:space="preserve" style="fill-rule:evenodd;clip-rule:evenodd;stroke-linejoin:round;stroke-miterlimit:1.41421;">
    <g transform="matrix(1,0,0,1,-28.8535,39.8509)">
        <path d="M82.241,-21.17L119.106,-21.17L119.106,-1.053L111.586,-1.053L111.586,-14.871L45.864,-14.871L45.864,-1.053L38.442,-1.053L38.442,-21.17L74.623,-21.17L74.623,-34.989L82.241,-34.989L82.241,-21.17ZM83.168,2.707L83.168,17.697L122.866,17.697L122.866,24.191L83.168,24.191L83.168,48.019C83.168,50.851 82.452,52.804 81.02,53.879C79.881,54.757 77.748,55.197 74.623,55.197C70.424,55.197 65.72,54.904 60.512,54.318L59.438,46.896C65.33,47.71 69.789,48.117 72.817,48.117C74.77,48.117 75.746,47.287 75.746,45.627L75.746,24.191L34.926,24.191L34.926,17.697L75.746,17.697L75.746,2.707L50.307,2.707L50.307,-3.788L107.241,-3.788L107.241,2.707L83.168,2.707Z" style="fill-rule:nonzero;"/>
    </g>
</svg>
