<?xml version="1.0" encoding="UTF-8" standalone="no"?>
<!DOCTYPE svg PUBLIC "-//W3C//DTD SVG 1.1//EN" "http://www.w3.org/Graphics/SVG/1.1/DTD/svg11.dtd">
<svg width="100%" height="100%" viewBox="0 0 100 100" version="1.1" xmlns="http://www.w3.org/2000/svg" xmlns:xlink="http://www.w3.org/1999/xlink" xml:space="preserve" style="fill-rule:evenodd;clip-rule:evenodd;stroke-linejoin:round;stroke-miterlimit:1.41421;">
    <g transform="matrix(1,0,0,1,-28.8535,39.8509)">
        <path d="M48.696,-0.174C44.692,-5.676 40.037,-10.982 34.731,-16.092L39.028,-20.877L42.885,-16.873C46.922,-22.31 50.421,-28.446 53.383,-35.282L59.78,-31.766C55.58,-24.474 51.218,-18.045 46.694,-12.479C48.907,-9.972 50.812,-7.547 52.407,-5.204C56.899,-11.616 60.691,-17.508 63.784,-22.879L69.692,-18.973C62.075,-7.45 55.353,1.486 49.526,7.834C53.497,7.736 58.429,7.427 64.321,6.906C62.693,3.325 61.358,0.623 60.317,-1.2L65.785,-3.495C69.106,2.658 71.84,8.859 73.989,15.109L68.08,18.039C67.885,17.225 67.218,15.125 66.078,11.74C62.302,12.358 59.21,12.814 56.801,13.107L56.801,55.002L50.307,55.002L50.307,13.937L49.086,14.035C44.073,14.523 39.581,14.881 35.61,15.109L33.315,8.42C38.198,8.322 41.192,8.224 42.299,8.127L42.787,7.541C45.685,3.83 47.654,1.258 48.696,-0.174ZM84.731,-1.688L111.537,-1.688L111.537,4.513L84.535,4.513L84.535,-1.493C82.094,1.893 79.116,5.295 75.6,8.712L71.303,3C80.711,-4.976 87.709,-17.134 92.299,-33.475L99.916,-33.475C106.557,-18.306 115.183,-6.75 125.795,1.193L121.401,7.296C111.017,-1.265 102.683,-12.332 96.401,-25.907C93.699,-17.02 89.809,-8.947 84.731,-1.688ZM117.299,15.5L117.299,54.513L110.805,54.513L110.805,49.435L85.219,49.435L85.219,55.05L78.725,55.05L78.725,15.5L117.299,15.5ZM85.219,21.505L85.219,43.429L110.805,43.429L110.805,21.505L85.219,21.505ZM34.438,44.796C36.879,38.188 38.442,30.099 39.125,20.529L45.522,21.31C44.708,32.052 43.178,41.02 40.932,48.214L34.438,44.796ZM65.492,43.136C64.19,34.445 62.465,26.844 60.317,20.334L65.932,18.625C68.536,24.94 70.668,32.199 72.328,40.402L65.492,43.136Z" style="fill-rule:nonzero;"/>
    </g>
</svg>
