<?xml version="1.0" encoding="UTF-8" standalone="no"?>
<!DOCTYPE svg PUBLIC "-//W3C//DTD SVG 1.1//EN" "http://www.w3.org/Graphics/SVG/1.1/DTD/svg11.dtd">
<svg width="100%" height="100%" viewBox="0 0 100 100" version="1.1" xmlns="http://www.w3.org/2000/svg" xmlns:xlink="http://www.w3.org/1999/xlink" xml:space="preserve" style="fill-rule:evenodd;clip-rule:evenodd;stroke-linejoin:round;stroke-miterlimit:1.41421;">
    <g transform="matrix(1,0,0,1,-28.8535,39.8509)">
        <path d="M98.451,26.242C102.39,20.578 105.922,13.742 109.047,5.734L115.444,8.81C112.058,17.502 107.485,25.574 101.723,33.029C103.578,36.154 105.89,38.986 108.657,41.525C110.74,43.315 112.172,44.211 112.953,44.211C114.874,44.211 116.437,39.018 117.641,28.634L124.135,33.029C122.247,46.766 119.155,53.634 114.858,53.634C113.002,53.634 110.398,52.365 107.045,49.826C103.367,46.961 100.095,43.153 97.231,38.4C90.753,45.203 83.754,50.705 76.235,54.904L71.645,48.898C80.043,44.699 87.449,39.1 93.862,32.101C90.118,23.931 87.742,13.677 86.733,1.339L64.467,1.339L64.467,16.427C64.955,16.33 65.785,16.134 66.957,15.841C70.864,14.93 75.958,13.628 82.241,11.935L82.534,17.843C75.632,20.089 69.61,21.847 64.467,23.117L64.467,46.212C64.467,49.045 63.963,51.112 62.953,52.414C61.749,54.009 59.356,54.806 55.776,54.806C51.935,54.806 47.931,54.578 43.764,54.123L42.446,46.701C46.808,47.58 50.519,48.019 53.578,48.019C56.117,48.019 57.387,46.75 57.387,44.211L57.387,24.923C50.877,26.518 44.366,27.853 37.856,28.927L35.463,22.043C44.285,20.643 51.593,19.308 57.387,18.039L57.387,2.121L35.366,2.121L35.366,-4.178L57.387,-4.178L57.387,-19.071C51.886,-17.769 46.27,-16.678 40.541,-15.799L37.758,-21.903C51.756,-23.986 64.125,-27.046 74.867,-31.082L79.848,-25.467C74.477,-23.612 69.35,-22.049 64.467,-20.78L64.467,-5.057L86.342,-5.057C85.821,-14.562 85.561,-24.035 85.561,-33.475L92.641,-33.475C92.641,-23.514 92.901,-14.318 93.422,-5.887L122.231,-5.887L122.231,0.412L93.862,0.412L93.959,1.828C94.838,12.375 96.336,20.513 98.451,26.242ZM110.659,-9.891C107.794,-15.099 104.262,-20.357 100.063,-25.663L105.825,-29.373C109.633,-25.37 113.344,-20.243 116.957,-13.993L110.659,-9.891Z" style="fill-rule:nonzero;"/>
    </g>
</svg>
