<?xml version="1.0" encoding="UTF-8" standalone="no"?>
<!DOCTYPE svg PUBLIC "-//W3C//DTD SVG 1.1//EN" "http://www.w3.org/Graphics/SVG/1.1/DTD/svg11.dtd">
<svg width="100%" height="100%" viewBox="0 0 100 100" version="1.1" xmlns="http://www.w3.org/2000/svg" xmlns:xlink="http://www.w3.org/1999/xlink" xml:space="preserve" style="fill-rule:evenodd;clip-rule:evenodd;stroke-linejoin:round;stroke-miterlimit:1.41421;">
    <g transform="matrix(1,0,0,1,-28.8535,39.8509)">
        <path d="M92.641,-14.09L119.448,-14.09L119.448,-7.498L60.903,-7.498L60.903,-14.09L85.219,-14.09L85.219,-32.401L92.641,-32.401L92.641,-14.09ZM91.811,44.113C95.815,32.394 99.314,16.867 102.309,-2.469L110.024,-0.565C106.769,17.111 103.106,32.004 99.037,44.113L122.817,44.113L122.817,50.607L56.948,50.607L56.948,44.113L91.811,44.113ZM52.309,-12.577C47.394,-18.013 42.625,-22.375 38.002,-25.663L42.836,-31.18C48.435,-27.274 53.302,-23.01 57.436,-18.387L52.309,-12.577ZM49.916,10.714C45.522,5.636 40.558,1.177 35.024,-2.664L39.711,-8.28C45.213,-4.471 50.323,-0.077 55.043,4.904L49.916,10.714ZM35.317,47.921C41.762,39.718 47.556,29.79 52.7,18.136L58.022,23.703C52.52,36.007 46.922,46.212 41.225,54.318L35.317,47.921ZM75.746,39.132C73.5,25.102 70.554,12.375 66.909,0.949L74.233,-1.053C77.748,9.038 80.873,21.636 83.608,36.74L75.746,39.132Z" style="fill-rule:nonzero;"/>
    </g>
</svg>
