<?xml version="1.0" encoding="UTF-8" standalone="no"?>
<!DOCTYPE svg PUBLIC "-//W3C//DTD SVG 1.1//EN" "http://www.w3.org/Graphics/SVG/1.1/DTD/svg11.dtd">
<svg width="100%" height="100%" viewBox="0 0 100 100" version="1.1" xmlns="http://www.w3.org/2000/svg" xmlns:xlink="http://www.w3.org/1999/xlink" xml:space="preserve" style="fill-rule:evenodd;clip-rule:evenodd;stroke-linejoin:round;stroke-miterlimit:1.41421;">
    <g transform="matrix(1,0,0,1,-28.8535,39.8509)">
        <path d="M85.219,-11.893L79.311,-11.893C75.535,-1.346 70.668,8.013 64.711,16.183L59.487,10.812C68.178,-0.972 74.379,-16.043 78.09,-34.403L85.317,-32.987C84.177,-27.485 82.94,-22.651 81.606,-18.485L122.328,-18.485L122.328,-11.893L92.543,-11.893L92.543,2.609L117.543,2.609L117.543,9.201L92.543,9.201L92.543,23.605L119.057,23.605L119.057,30.099L92.543,30.099L92.543,55.002L85.219,55.002L85.219,-11.893ZM55.922,-10.184L55.922,55.002L48.744,55.002L48.744,4.318L48.354,5.099C45.587,9.917 42.446,14.588 38.93,19.113L34.633,13.107C44.399,0.119 51.56,-15.343 56.117,-33.28L63.491,-31.375C61.505,-24.344 58.982,-17.28 55.922,-10.184Z" style="fill-rule:nonzero;"/>
    </g>
</svg>
