<?xml version="1.0" encoding="UTF-8" standalone="no"?>
<!DOCTYPE svg PUBLIC "-//W3C//DTD SVG 1.1//EN" "http://www.w3.org/Graphics/SVG/1.1/DTD/svg11.dtd">
<svg width="100%" height="100%" viewBox="0 0 100 100" version="1.1" xmlns="http://www.w3.org/2000/svg" xmlns:xlink="http://www.w3.org/1999/xlink" xml:space="preserve" style="fill-rule:evenodd;clip-rule:evenodd;stroke-linejoin:round;stroke-miterlimit:1.41421;">
    <g transform="matrix(1,0,0,1,-28.8535,39.8509)">
        <path d="M74.819,-14.383L74.819,-21.561L81.313,-21.561L81.313,-14.383L101.43,-14.383L101.43,-8.67L80.629,-8.67C80.564,-8.345 80.401,-7.677 80.141,-6.668C87.237,-3.511 94.562,0.461 102.114,5.246L97.426,10.714C90.167,5.278 83.705,1.112 78.041,-1.786C74.949,3.488 68.878,7.866 59.828,11.349L55.727,5.929C66.404,2.349 72.605,-2.518 74.33,-8.67L56.117,-8.67L56.117,-14.383L74.819,-14.383ZM112.807,-30.204L112.807,18.429L44.936,18.429L44.936,-30.204L112.807,-30.204ZM52.016,-24.198L52.016,12.423L105.727,12.423L105.727,-24.198L52.016,-24.198ZM34.926,47.433C39.516,41.737 43.211,34.526 46.01,25.802L53.041,27.902C50.795,36.365 46.954,44.438 41.518,52.121L34.926,47.433ZM60.219,22.824L67.641,22.824L67.641,42.599C67.641,44.292 68.211,45.301 69.35,45.627C70.554,46.082 74.119,46.31 80.043,46.31C89.776,46.31 95.001,45.545 95.717,44.015C96.303,42.681 96.645,39.523 96.742,34.543L104.018,36.837C103.53,44.292 102.341,48.817 100.453,50.412C98.305,52.137 92.234,53 82.241,53C71.922,53 65.851,52.609 64.028,51.828C61.489,50.688 60.219,48.589 60.219,45.529L60.219,22.824ZM83.412,38.009C80.255,32.541 76.723,27.544 72.817,23.019L78.725,19.699C82.045,23.149 85.74,27.918 89.809,34.005L83.412,38.009ZM116.713,48.117C111.928,39.653 106.427,32.02 100.209,25.216L105.922,21.31C112.433,28.016 118.308,35.421 123.549,43.527L116.713,48.117Z" style="fill-rule:nonzero;"/>
    </g>
</svg>
