<?xml version="1.0" encoding="UTF-8" standalone="no"?>
<!DOCTYPE svg PUBLIC "-//W3C//DTD SVG 1.1//EN" "http://www.w3.org/Graphics/SVG/1.1/DTD/svg11.dtd">
<svg width="100%" height="100%" viewBox="0 0 100 100" version="1.1" xmlns="http://www.w3.org/2000/svg" xmlns:xlink="http://www.w3.org/1999/xlink" xml:space="preserve" style="fill-rule:evenodd;clip-rule:evenodd;stroke-linejoin:round;stroke-miterlimit:1.41421;">
    <g transform="matrix(1,0,0,1,-28.8535,39.8509)">
        <path d="M55.434,36.447C58.266,40.386 62.433,43.153 67.934,44.748C72.101,45.952 79.522,46.554 90.2,46.554C100.291,46.554 111.765,46.115 124.623,45.236C123.517,47.71 122.719,50.2 122.231,52.707C111.326,53.13 103.025,53.341 97.328,53.341C81.02,53.341 69.822,52.235 63.735,50.021C58.787,48.231 55.092,45.496 52.651,41.818C48.354,46.798 43.813,51.193 39.028,55.002L34.633,47.726C40.134,44.373 44.806,40.972 48.647,37.521L48.647,12.033L34.731,12.033L34.731,5.343L55.434,5.343L55.434,36.447ZM112.221,4.611L69.35,4.611L69.35,41.33L62.856,41.33L62.856,-1.004L69.35,-1.004L69.35,-30.496L112.221,-30.496L112.221,-1.004L118.715,-1.004L118.715,34.298C118.715,37.228 118.113,39.132 116.909,40.011C115.965,40.76 114.272,41.134 111.83,41.134C108.738,41.134 105.597,40.923 102.407,40.5L101.625,33.908C104.718,34.461 107.452,34.738 109.828,34.738C111.423,34.738 112.221,33.859 112.221,32.101L112.221,4.611ZM105.922,-1.004L105.922,-11.112L91.957,-11.112L91.957,-1.004L105.922,-1.004ZM86.049,-1.004L86.049,-16.288L105.922,-16.288L105.922,-24.881L75.746,-24.881L75.746,-1.004L86.049,-1.004ZM103.041,11.3L103.041,30.636L83.022,30.636L83.022,35.861L77.114,35.861L77.114,11.3L103.041,11.3ZM83.022,16.476L83.022,25.314L97.133,25.314L97.133,16.476L83.022,16.476ZM52.602,-10.965C47.719,-16.987 42.722,-22 37.612,-26.004L42.543,-30.985C48.989,-25.874 54.148,-21.008 58.022,-16.385L52.602,-10.965Z" style="fill-rule:nonzero;"/>
    </g>
</svg>
