<?xml version="1.0" encoding="UTF-8" standalone="no"?>
<!DOCTYPE svg PUBLIC "-//W3C//DTD SVG 1.1//EN" "http://www.w3.org/Graphics/SVG/1.1/DTD/svg11.dtd">
<svg width="100%" height="100%" viewBox="0 0 100 100" version="1.1" xmlns="http://www.w3.org/2000/svg" xmlns:xlink="http://www.w3.org/1999/xlink" xml:space="preserve" style="fill-rule:evenodd;clip-rule:evenodd;stroke-linejoin:round;stroke-miterlimit:1.41421;">
    <g transform="matrix(1,0,0,1,-28.8535,39.8509)">
        <path d="M54.36,-9.598L54.36,55.002L47.035,55.002L47.035,4.123C43.943,9.071 40.574,13.839 36.928,18.429L32.924,12.228C42.95,0.021 50.388,-15.018 55.239,-32.889L62.465,-30.887C60.056,-23.075 57.354,-15.978 54.36,-9.598ZM93.813,-4.569L122.426,-4.569L122.426,2.121L93.813,2.121L93.813,43.527L118.91,43.527L118.91,50.216L61.782,50.216L61.782,43.527L86.293,43.527L86.293,2.121L59.096,2.121L59.096,-4.569L86.293,-4.569L86.293,-32.45L93.813,-32.45L93.813,-4.569Z" style="fill-rule:nonzero;"/>
    </g>
</svg>
