<?xml version="1.0" encoding="UTF-8" standalone="no"?>
<!DOCTYPE svg PUBLIC "-//W3C//DTD SVG 1.1//EN" "http://www.w3.org/Graphics/SVG/1.1/DTD/svg11.dtd">
<svg width="100%" height="100%" viewBox="0 0 100 100" version="1.1" xmlns="http://www.w3.org/2000/svg" xmlns:xlink="http://www.w3.org/1999/xlink" xml:space="preserve" style="fill-rule:evenodd;clip-rule:evenodd;stroke-linejoin:round;stroke-miterlimit:1.41421;">
    <g transform="matrix(1,0,0,1,-28.8535,39.8509)">
        <path d="M82.241,-18.778L122.328,-18.778L122.328,-12.088L82.143,-12.088L82.143,0.607L114.223,0.607L114.223,33.908C114.223,37.163 113.491,39.425 112.026,40.695C110.561,42.03 108.054,42.697 104.506,42.697C101.056,42.697 97.166,42.534 92.836,42.209L91.518,34.591C96.466,35.275 100.535,35.617 103.725,35.617C105.841,35.617 106.899,34.445 106.899,32.101L106.899,7.101L82.143,7.101L82.143,55.002L74.819,55.002L74.819,7.101L51.625,7.101L51.625,44.992L44.301,44.992L44.301,0.607L74.819,0.607L74.819,-12.088L35.317,-12.088L35.317,-18.778L74.721,-18.778L74.721,-33.963L82.241,-33.963L82.241,-18.778Z" style="fill-rule:nonzero;"/>
    </g>
</svg>
