<?xml version="1.0" encoding="UTF-8" standalone="no"?>
<!DOCTYPE svg PUBLIC "-//W3C//DTD SVG 1.1//EN" "http://www.w3.org/Graphics/SVG/1.1/DTD/svg11.dtd">
<svg width="100%" height="100%" viewBox="0 0 100 100" version="1.1" xmlns="http://www.w3.org/2000/svg" xmlns:xlink="http://www.w3.org/1999/xlink" xml:space="preserve" style="fill-rule:evenodd;clip-rule:evenodd;stroke-linejoin:round;stroke-miterlimit:1.41421;">
    <g transform="matrix(1,0,0,1,-28.8535,39.8509)">
        <path d="M49.184,-14.579L49.184,-34.793L56.069,-34.793L56.069,-14.579L67.787,-14.579L67.787,-8.084L56.069,-8.084L56.069,10.617C58.705,9.966 62.84,8.761 68.471,7.004L69.057,12.912C63.035,14.995 58.705,16.46 56.069,17.306L56.069,48.214C56.069,51.112 55.369,53.016 53.969,53.927C52.83,54.643 50.795,55.002 47.866,55.002C45.164,55.002 41.974,54.839 38.295,54.513L36.977,47.14C40.492,47.726 43.552,48.019 46.157,48.019C48.175,48.019 49.184,47.026 49.184,45.041L49.184,19.406C45.408,20.513 41.078,21.684 36.196,22.921L33.901,16.037C41.192,14.474 46.287,13.302 49.184,12.521L49.184,-8.084L35.268,-8.084L35.268,-14.579L49.184,-14.579ZM78.578,-18.143C90.46,-19.836 101.528,-22.7 111.782,-26.737L117.494,-21.073C106.264,-17.036 93.292,-14.107 78.578,-12.284L78.578,-7.352C78.578,-4.943 79.474,-3.478 81.264,-2.957C82.892,-2.567 88.035,-2.371 96.694,-2.371C107.403,-2.371 113.295,-3.202 114.369,-4.862C115.086,-6.066 115.59,-9.273 115.883,-14.481L122.963,-12.674C122.475,-5.545 121.515,-1.086 120.082,0.705C118.943,2.267 117.039,3.244 114.369,3.634C110.561,4.155 104.425,4.416 95.961,4.416C84.568,4.416 77.781,3.911 75.6,2.902C72.866,1.698 71.498,-0.597 71.498,-3.983L71.498,-33.475L78.578,-33.475L78.578,-18.143ZM116.616,10.617L116.616,55.002L109.731,55.002L109.731,50.509L79.799,50.509L79.799,55.002L72.914,55.002L72.914,10.617L116.616,10.617ZM79.799,16.623L79.799,27.316L109.731,27.316L109.731,16.623L79.799,16.623ZM79.799,33.127L79.799,44.504L109.731,44.504L109.731,33.127L79.799,33.127Z" style="fill-rule:nonzero;"/>
    </g>
</svg>
