<?xml version="1.0" encoding="UTF-8" standalone="no"?>
<!DOCTYPE svg PUBLIC "-//W3C//DTD SVG 1.1//EN" "http://www.w3.org/Graphics/SVG/1.1/DTD/svg11.dtd">
<svg width="100%" height="100%" viewBox="0 0 100 100" version="1.1" xmlns="http://www.w3.org/2000/svg" xmlns:xlink="http://www.w3.org/1999/xlink" xml:space="preserve" style="fill-rule:evenodd;clip-rule:evenodd;stroke-linejoin:round;stroke-miterlimit:1.41421;">
    <g transform="matrix(1,0,0,1,-28.8535,39.8509)">
        <path d="M97.084,29.22L97.084,47.14L66.713,47.14L66.713,51.925L60.317,51.925L60.317,30.734C58.526,31.418 55.287,32.443 50.6,33.81L46.694,28.634C57.599,26.16 66.762,22.791 74.184,18.527C70.929,16.476 68.097,14.458 65.688,12.472C61.814,15.76 57.794,18.576 53.627,20.92L49.428,16.281C58.445,11.821 65.769,5.408 71.401,-2.957L77.211,-0.955C76.17,0.574 75.372,1.73 74.819,2.511L94.887,2.511L98.598,5.685C93.91,10.763 89.483,14.865 85.317,17.99L86.489,18.527C92.706,21.326 100.812,23.931 110.805,26.339L106.606,32.004C95.506,28.618 86.57,25.151 79.799,21.603C75.177,24.468 70.05,27.007 64.418,29.22L97.084,29.22ZM66.713,34.396L66.713,41.818L90.785,41.818L90.785,34.396L66.713,34.396ZM79.506,15.109C82.338,13.221 85.366,10.747 88.588,7.687L70.619,7.687L69.692,8.664C72.882,11.138 76.153,13.286 79.506,15.109ZM74.428,-30.985L74.428,-3.153L44.887,-3.153L44.887,55.05L37.905,55.05L37.905,-30.985L74.428,-30.985ZM44.887,-25.565L44.887,-19.559L68.032,-19.559L68.032,-25.565L44.887,-25.565ZM44.887,-14.676L44.887,-8.475L68.032,-8.475L68.032,-14.676L44.887,-14.676ZM119.594,-30.985L119.594,47.238C119.594,50.102 118.829,52.088 117.299,53.195C116.225,54.009 114.158,54.416 111.098,54.416C107.582,54.416 104.116,54.253 100.698,53.927L99.184,46.408C102.862,47.157 106.264,47.531 109.389,47.531C111.472,47.531 112.514,46.554 112.514,44.601L112.514,-3.153L82.387,-3.153L82.387,-30.985L119.594,-30.985ZM88.784,-25.565L88.784,-19.559L112.514,-19.559L112.514,-25.565L88.784,-25.565ZM88.784,-14.676L88.784,-8.475L112.514,-8.475L112.514,-14.676L88.784,-14.676Z" style="fill-rule:nonzero;"/>
    </g>
</svg>
