<?xml version="1.0" encoding="UTF-8" standalone="no"?>
<!DOCTYPE svg PUBLIC "-//W3C//DTD SVG 1.1//EN" "http://www.w3.org/Graphics/SVG/1.1/DTD/svg11.dtd">
<svg width="100%" height="100%" viewBox="0 0 100 100" version="1.1" xmlns="http://www.w3.org/2000/svg" xmlns:xlink="http://www.w3.org/1999/xlink" xml:space="preserve" style="fill-rule:evenodd;clip-rule:evenodd;stroke-linejoin:round;stroke-miterlimit:1.41421;">
    <g transform="matrix(1,0,0,1,-28.8535,39.8509)">
        <path d="M99.721,13.302L99.721,2.609L106.215,2.609L106.215,13.302L120.229,13.302L120.229,19.113L106.215,19.113L106.215,29.904L123.696,29.904L123.696,35.91L106.215,35.91L106.215,55.002L99.721,55.002L99.721,35.91L80.434,35.91L80.434,29.904L99.721,29.904L99.721,19.113L89.711,19.113C88.507,22.466 87.075,25.493 85.414,28.195L80.434,23.898C83.526,18.397 85.626,12.196 86.733,5.295L92.934,6.418C92.413,8.989 91.909,11.284 91.42,13.302L99.721,13.302ZM66.225,-11.405L77.895,-11.405L77.895,47.043C77.895,49.907 77.195,51.828 75.795,52.804C74.688,53.618 72.687,54.025 69.789,54.025C65.916,54.025 62.254,53.797 58.803,53.341L57.778,46.408C62.205,47.157 65.818,47.531 68.617,47.531C70.668,47.531 71.694,46.587 71.694,44.699L71.694,27.414L48.207,27.414C47.687,37.993 44.985,47.531 40.102,56.027L34.975,50.802C39.858,43.055 42.299,32.394 42.299,18.82L42.299,-1.688C40.997,0.2 39.19,2.495 36.879,5.197L33.217,-0.321C41.811,-10.314 47.442,-21.903 50.112,-35.086L56.899,-33.817C56.378,-31.799 55.971,-30.35 55.678,-29.471L55.385,-28.397L70.278,-28.397L73.403,-25.174C71.319,-20.519 68.927,-15.929 66.225,-11.405ZM57.094,-5.887L48.5,-5.887L48.5,5.099L57.094,5.099L57.094,-5.887ZM62.807,-5.887L62.807,5.099L71.694,5.099L71.694,-5.887L62.807,-5.887ZM57.094,10.421L48.5,10.421L48.5,21.896L57.094,21.896L57.094,10.421ZM62.807,10.421L62.807,21.896L71.694,21.896L71.694,10.421L62.807,10.421ZM59.584,-11.405C61.7,-14.92 63.539,-18.713 65.102,-22.782L53.383,-22.782C51.69,-18.289 49.998,-14.497 48.305,-11.405L59.584,-11.405ZM101.039,-23.758C100.128,-12.039 94.789,-3.202 85.024,2.755L80.336,-2.371C88.572,-6.538 93.227,-13.667 94.301,-23.758L80.629,-23.758L80.629,-29.764L120.131,-29.764C119.806,-17.394 119.236,-9.289 118.422,-5.448C117.934,-3.071 117.006,-1.411 115.639,-0.467C114.467,0.282 112.53,0.656 109.828,0.656C106.476,0.656 103.204,0.412 100.014,-0.077L99.135,-6.278C102.455,-5.724 105.287,-5.448 107.631,-5.448C109.942,-5.448 111.342,-6.375 111.83,-8.231C112.449,-10.64 112.905,-15.816 113.198,-23.758L101.039,-23.758Z" style="fill-rule:nonzero;"/>
    </g>
</svg>
