<?xml version="1.0" encoding="UTF-8" standalone="no"?>
<!DOCTYPE svg PUBLIC "-//W3C//DTD SVG 1.1//EN" "http://www.w3.org/Graphics/SVG/1.1/DTD/svg11.dtd">
<svg width="100%" height="100%" viewBox="0 0 100 100" version="1.1" xmlns="http://www.w3.org/2000/svg" xmlns:xlink="http://www.w3.org/1999/xlink" xml:space="preserve" style="fill-rule:evenodd;clip-rule:evenodd;stroke-linejoin:round;stroke-miterlimit:1.41421;">
    <g transform="matrix(1,0,0,1,-28.8535,39.8509)">
        <path d="M66.225,21.701L66.225,50.021L43.813,50.021L43.813,55.002L37.221,55.002L37.221,21.701L66.225,21.701ZM43.813,27.511L43.813,44.211L59.731,44.211L59.731,27.511L43.813,27.511ZM92.446,-20.291L92.446,-34.989L99.135,-34.989L99.135,-20.291L119.448,-20.291L119.448,-14.188L99.135,-14.188L99.135,-1.883L124.233,-1.883L124.233,4.22L111.049,4.22L111.049,16.037L122.426,16.037L122.426,22.238L111.342,22.238L111.342,47.531C111.342,52.511 108.543,55.002 102.944,55.002C98.419,55.002 94.513,54.774 91.225,54.318L90.151,46.896C94.448,47.775 98.305,48.214 101.723,48.214C103.611,48.214 104.555,47.254 104.555,45.334L104.555,22.238L71.254,22.238L71.254,16.037L104.36,16.037L104.36,4.22L69.448,4.22L69.448,-1.883L92.446,-1.883L92.446,-14.188L73.842,-14.188L73.842,-20.291L92.446,-20.291ZM38.735,-30.789L64.858,-30.789L64.858,-24.784L38.735,-24.784L38.735,-30.789ZM34.34,-17.704L69.936,-17.704L69.936,-11.6L34.34,-11.6L34.34,-17.704ZM38.735,-4.471L64.858,-4.471L64.858,1.535L38.735,1.535L38.735,-4.471ZM38.735,8.615L64.858,8.615L64.858,14.621L38.735,14.621L38.735,8.615ZM87.563,42.013C84.047,36.121 80.369,31.157 76.528,27.121L81.948,23.312C86.993,28.781 90.753,33.615 93.227,37.814L87.563,42.013Z" style="fill-rule:nonzero;"/>
    </g>
</svg>
