<?xml version="1.0" encoding="UTF-8" standalone="no"?>
<!DOCTYPE svg PUBLIC "-//W3C//DTD SVG 1.1//EN" "http://www.w3.org/Graphics/SVG/1.1/DTD/svg11.dtd">
<svg width="100%" height="100%" viewBox="0 0 100 100" version="1.1" xmlns="http://www.w3.org/2000/svg" xmlns:xlink="http://www.w3.org/1999/xlink" xml:space="preserve" style="fill-rule:evenodd;clip-rule:evenodd;stroke-linejoin:round;stroke-miterlimit:1.41421;">
    <g transform="matrix(1,0,0,1,-28.8535,39.8509)">
        <path d="M68.52,-14.774C67.413,4.367 64.711,19.129 60.414,29.513L61.733,30.636C63.784,32.296 66.648,34.754 70.326,38.009L66.225,44.308C62.351,40.337 59.422,37.44 57.436,35.617C53.497,43.071 47.931,49.809 40.737,55.832L36.098,50.119C42.673,45.171 48.077,38.807 52.309,31.027C50.128,29.074 47.296,26.746 43.813,24.045C43.78,24.142 43.455,25.151 42.836,27.072C42.381,28.569 41.941,29.985 41.518,31.32L35.903,28.83C39.06,18.576 41.941,6.466 44.545,-7.498L44.741,-8.475L35.121,-8.475L35.121,-14.774L45.815,-14.774L46.303,-17.85C46.856,-21.008 47.735,-26.655 48.94,-34.793L55.434,-33.475C54.457,-26.444 53.481,-20.21 52.504,-14.774L68.52,-14.774ZM61.44,-8.475L51.332,-8.475C50.03,-0.988 48.321,6.808 46.205,14.914L45.424,18.234C48.777,20.48 52.016,22.808 55.141,25.216C57.94,18.315 60.007,7.492 61.342,-7.254L61.44,-8.475ZM76.528,-0.467C81.606,-10.623 85.903,-21.691 89.418,-33.67L96.645,-31.766C92.934,-20.796 88.8,-10.835 84.242,-1.883L83.608,-0.76L86.098,-0.858C89.451,-0.955 95.294,-1.297 103.627,-1.883L111.244,-2.371C108.77,-6.31 105.304,-11.177 100.844,-16.971L106.02,-20.389C113.084,-12.121 119.122,-3.478 124.135,5.539L118.227,9.933C116.664,6.938 115.395,4.627 114.418,3C102.927,4.497 88.328,5.604 70.619,6.32L68.325,-0.272C69.236,-0.304 70.75,-0.337 72.866,-0.37C74.461,-0.402 75.681,-0.435 76.528,-0.467ZM117.104,14.23L117.104,54.513L110.219,54.513L110.219,48.8L81.703,48.8L81.703,54.513L74.819,54.513L74.819,14.23L117.104,14.23ZM81.703,20.431L81.703,42.599L110.219,42.599L110.219,20.431L81.703,20.431Z" style="fill-rule:nonzero;"/>
    </g>
</svg>
