<?xml version="1.0" encoding="UTF-8" standalone="no"?>
<!DOCTYPE svg PUBLIC "-//W3C//DTD SVG 1.1//EN" "http://www.w3.org/Graphics/SVG/1.1/DTD/svg11.dtd">
<svg width="100%" height="100%" viewBox="0 0 100 100" version="1.1" xmlns="http://www.w3.org/2000/svg" xmlns:xlink="http://www.w3.org/1999/xlink" xml:space="preserve" style="fill-rule:evenodd;clip-rule:evenodd;stroke-linejoin:round;stroke-miterlimit:1.41421;">
    <g transform="matrix(1,0,0,1,-28.8535,39.8509)">
        <path d="M80.922,-8.67L80.922,3.927L102.7,3.927L102.7,9.933L80.922,9.933L80.922,28.634L106.801,28.634L106.801,34.933L50.649,34.933L50.649,28.634L73.94,28.634L73.94,9.933L54.75,9.933L54.75,3.927L73.94,3.927L73.94,-8.67L51.625,-8.67L51.625,-14.871L105.727,-14.871L105.727,-8.67L80.922,-8.67ZM96.742,27.511C93.845,23.214 90.574,19.243 86.928,15.597L91.957,11.74C95.571,14.962 98.923,18.722 102.016,23.019L96.742,27.511ZM118.813,-29.862L118.813,55.002L111.635,55.002L111.635,50.021L45.961,50.021L45.961,55.002L38.637,55.002L38.637,-29.862L118.813,-29.862ZM45.961,-23.563L45.961,43.722L111.635,43.722L111.635,-23.563L45.961,-23.563Z" style="fill-rule:nonzero;"/>
    </g>
</svg>
