<?xml version="1.0" encoding="UTF-8" standalone="no"?>
<!DOCTYPE svg PUBLIC "-//W3C//DTD SVG 1.1//EN" "http://www.w3.org/Graphics/SVG/1.1/DTD/svg11.dtd">
<svg width="100%" height="100%" viewBox="0 0 100 100" version="1.1" xmlns="http://www.w3.org/2000/svg" xmlns:xlink="http://www.w3.org/1999/xlink" xml:space="preserve" style="fill-rule:evenodd;clip-rule:evenodd;stroke-linejoin:round;stroke-miterlimit:1.41421;">
    <g transform="matrix(1,0,0,1,-28.8535,39.8509)">
        <path d="M82.778,-13.993L82.778,7.443L121.352,7.443L121.352,14.132L85.561,14.132C92.56,29.041 104.653,39.735 121.84,46.212L116.371,54.025C99.086,44.943 87.075,32.98 80.336,18.136C75.649,35.454 63.458,48.019 43.764,55.832L38.735,49.142C58.787,42.632 70.652,30.962 74.33,14.132L36.342,14.132L36.342,7.443L75.16,7.443L75.16,-13.993L57.436,-13.993C54.734,-7.873 51.3,-2.127 47.133,3.244L41.664,-1.981C48.468,-10.9 53.465,-21.838 56.655,-34.793L64.028,-33.084C62.791,-28.657 61.489,-24.523 60.121,-20.682L113.246,-20.682L113.246,-13.993L82.778,-13.993Z" style="fill-rule:nonzero;"/>
    </g>
</svg>
