<?xml version="1.0" encoding="UTF-8" standalone="no"?>
<!DOCTYPE svg PUBLIC "-//W3C//DTD SVG 1.1//EN" "http://www.w3.org/Graphics/SVG/1.1/DTD/svg11.dtd">
<svg width="100%" height="100%" viewBox="0 0 100 100" version="1.1" xmlns="http://www.w3.org/2000/svg" xmlns:xlink="http://www.w3.org/1999/xlink" xml:space="preserve" style="fill-rule:evenodd;clip-rule:evenodd;stroke-linejoin:round;stroke-miterlimit:1.41421;">
    <g transform="matrix(1,0,0,1,-28.8535,39.8509)">
        <path d="M74.819,-26.493L74.819,-34.989L82.045,-34.989L82.045,-26.493L121.303,-26.493L121.303,-20.877L82.045,-20.877L82.045,-14.871L114.223,-14.871L114.223,-9.354L43.52,-9.354L43.52,-14.871L74.819,-14.871L74.819,-20.877L36.244,-20.877L36.244,-26.493L74.819,-26.493ZM109.145,-4.373L109.145,13.107L99.428,13.107C98.354,15.516 96.922,18.153 95.131,21.017L123.256,21.017L123.256,26.828L34.34,26.828L34.34,21.017L60.951,21.017C60.105,18.608 58.966,15.972 57.534,13.107L48.451,13.107L48.451,-4.373L109.145,-4.373ZM55.434,0.705L55.434,8.029L102.016,8.029L102.016,0.705L55.434,0.705ZM65.053,13.107C66.192,15.548 67.283,18.185 68.325,21.017L87.953,21.017C89.386,18.576 90.639,15.939 91.713,13.107L65.053,13.107ZM110.561,31.906L110.561,55.05L103.334,55.05L103.334,51.242L54.213,51.242L54.213,55.05L46.938,55.05L46.938,31.906L110.561,31.906ZM54.213,37.228L54.213,45.627L103.334,45.627L103.334,37.228L54.213,37.228Z" style="fill-rule:nonzero;"/>
    </g>
</svg>
