<?xml version="1.0" encoding="UTF-8" standalone="no"?>
<!DOCTYPE svg PUBLIC "-//W3C//DTD SVG 1.1//EN" "http://www.w3.org/Graphics/SVG/1.1/DTD/svg11.dtd">
<svg width="100%" height="100%" viewBox="0 0 100 100" version="1.1" xmlns="http://www.w3.org/2000/svg" xmlns:xlink="http://www.w3.org/1999/xlink" xml:space="preserve" style="fill-rule:evenodd;clip-rule:evenodd;stroke-linejoin:round;stroke-miterlimit:1.41421;">
    <g transform="matrix(1,0,0,1,-28.8535,39.8509)">
        <path d="M111.098,-30.301L111.098,3.83L81.996,3.83L81.996,10.714L117.299,10.714L117.299,16.72L81.996,16.72L81.996,23.898L123.793,23.898L123.793,30.197L33.803,30.197L33.803,23.898L74.916,23.898L74.916,16.72L40.102,16.72L40.102,10.714L74.916,10.714L74.916,3.83L46.596,3.83L46.596,-30.301L111.098,-30.301ZM53.481,-24.491L53.481,-16.092L74.916,-16.092L74.916,-24.491L53.481,-24.491ZM53.481,-10.477L53.481,-1.981L74.916,-1.981L74.916,-10.477L53.481,-10.477ZM104.018,-1.981L104.018,-10.477L81.996,-10.477L81.996,-1.981L104.018,-1.981ZM104.018,-16.092L104.018,-24.491L81.996,-24.491L81.996,-16.092L104.018,-16.092ZM36.489,50.607C41.306,45.594 45.245,39.604 48.305,32.638L54.799,35.421C51.284,43.397 47.28,50.168 42.787,55.734L36.489,50.607ZM67.104,54.904C66.388,48.068 65.183,41.509 63.491,35.226L70.18,33.615C72.263,39.214 73.907,45.675 75.112,53L67.104,54.904ZM88.686,53.341C86.668,45.692 84.47,39.458 82.094,34.64L88.588,32.638C91.713,38.205 94.252,44.292 96.205,50.9L88.686,53.341ZM115.883,53.732C111.749,46.44 107.257,39.962 102.407,34.298L108.315,31.32C113.816,36.528 118.617,42.534 122.719,49.337L115.883,53.732Z" style="fill-rule:nonzero;"/>
    </g>
</svg>
