<?xml version="1.0" encoding="UTF-8" standalone="no"?>
<!DOCTYPE svg PUBLIC "-//W3C//DTD SVG 1.1//EN" "http://www.w3.org/Graphics/SVG/1.1/DTD/svg11.dtd">
<svg width="100%" height="100%" viewBox="0 0 100 100" version="1.1" xmlns="http://www.w3.org/2000/svg" xmlns:xlink="http://www.w3.org/1999/xlink" xml:space="preserve" style="fill-rule:evenodd;clip-rule:evenodd;stroke-linejoin:round;stroke-miterlimit:1.41421;">
    <g transform="matrix(1,0,0,1,-28.8535,39.8509)">
        <path d="M73.598,-6.18L79.311,-4.569C78.009,-1.802 76.479,0.998 74.721,3.83L122.182,3.83L122.182,10.031L95.912,10.031C103.302,16.639 112.823,21.864 124.477,25.705L120.522,32.101C117.657,30.929 115.02,29.725 112.612,28.488L112.612,55.002L106.117,55.002L106.117,50.509L89.614,50.509L89.614,55.002L83.119,55.002L83.119,24.093L104.701,24.093C97.8,19.894 92.039,15.337 87.416,10.421L86.977,10.031L70.278,10.031C66.241,15.076 60.984,19.764 54.506,24.093L74.721,24.093L74.721,54.611L68.227,54.611L68.227,50.509L51.43,50.509L51.43,55.002L45.034,55.002L45.034,29.709C44.122,30.229 41.616,31.499 37.514,33.517L33.412,27.804C45.066,23.638 54.522,17.713 61.782,10.031L35.317,10.031L35.317,3.83L66.811,3.83C68.894,0.933 70.587,-1.965 71.889,-4.862L43.227,-4.862L43.227,-30.301L73.598,-30.301L73.598,-6.18ZM89.614,29.904L89.614,44.601L106.117,44.601L106.117,29.904L89.614,29.904ZM49.721,-24.295L49.721,-10.672L67.104,-10.672L67.104,-24.295L49.721,-24.295ZM51.43,29.904L51.43,44.601L68.227,44.601L68.227,29.904L51.43,29.904ZM113.735,-30.301L113.735,-4.862L82.826,-4.862L82.826,-30.301L113.735,-30.301ZM89.321,-24.295L89.321,-10.672L107.241,-10.672L107.241,-24.295L89.321,-24.295Z" style="fill-rule:nonzero;"/>
    </g>
</svg>
