<?xml version="1.0" encoding="UTF-8" standalone="no"?>
<!DOCTYPE svg PUBLIC "-//W3C//DTD SVG 1.1//EN" "http://www.w3.org/Graphics/SVG/1.1/DTD/svg11.dtd">
<svg width="100%" height="100%" viewBox="0 0 100 100" version="1.1" xmlns="http://www.w3.org/2000/svg" xmlns:xlink="http://www.w3.org/1999/xlink" xml:space="preserve" style="fill-rule:evenodd;clip-rule:evenodd;stroke-linejoin:round;stroke-miterlimit:1.41421;">
    <g transform="matrix(1,0,0,1,-28.8535,39.8509)">
        <path d="M54.506,-9.403L54.506,55.002L47.182,55.002L47.182,5.099C44.578,9.526 41.469,14.132 37.856,18.918L33.705,12.814C43.406,0.216 50.405,-15.018 54.701,-32.889L62.123,-31.18C59.91,-23.237 57.371,-15.978 54.506,-9.403ZM75.209,-22L75.209,-4.373L112.123,-4.373L116.323,-0.663C112.937,11.903 108.364,22.531 102.602,31.222C108.364,37.277 115.2,42.681 123.11,47.433L117.836,54.025C110.512,49.11 103.937,43.543 98.11,37.326C92.706,44.097 85.707,50.168 77.114,55.539L72.035,49.142C80.89,44.715 88.051,38.905 93.52,31.711C86.456,22.498 81.524,12.602 78.725,2.023L75.209,2.023C75.112,14.881 74.444,24.712 73.207,31.515C71.677,40.076 68.422,48.052 63.442,55.441L57.631,50.119C62.547,43.706 65.639,35.568 66.909,25.705C67.722,19.617 68.129,11.854 68.129,2.414L68.129,-28.495L120.522,-28.495L120.522,-22L75.209,-22ZM97.914,25.509C102.146,18.966 105.418,11.138 107.729,2.023L85.805,2.023C88.051,9.933 92.088,17.762 97.914,25.509Z" style="fill-rule:nonzero;"/>
    </g>
</svg>
