<?xml version="1.0" encoding="UTF-8" standalone="no"?>
<!DOCTYPE svg PUBLIC "-//W3C//DTD SVG 1.1//EN" "http://www.w3.org/Graphics/SVG/1.1/DTD/svg11.dtd">
<svg width="100%" height="100%" viewBox="0 0 100 100" version="1.1" xmlns="http://www.w3.org/2000/svg" xmlns:xlink="http://www.w3.org/1999/xlink" xml:space="preserve" style="fill-rule:evenodd;clip-rule:evenodd;stroke-linejoin:round;stroke-miterlimit:1.41421;">
    <g transform="matrix(1,0,0,1,-28.8535,39.8509)">
        <path d="M110.707,-30.399L110.707,32.004L46.84,32.004L46.84,-30.399L110.707,-30.399ZM54.164,-24.002L54.164,-11.893L103.383,-11.893L103.383,-24.002L54.164,-24.002ZM54.164,-5.789L54.164,6.32L103.383,6.32L103.383,-5.789L54.164,-5.789ZM54.164,12.326L54.164,25.705L103.383,25.705L103.383,12.326L54.164,12.326ZM35.317,49.24C46.547,45.334 56.183,40.028 64.223,33.322L70.815,37.619C62.384,44.78 52.39,50.851 40.834,55.832L35.317,49.24ZM115.102,54.318C104.848,47.515 94.822,41.948 85.024,37.619L91.127,32.834C101.218,36.903 111.342,41.997 121.498,48.117L115.102,54.318Z" style="fill-rule:nonzero;"/>
    </g>
</svg>
