<?xml version="1.0" encoding="UTF-8" standalone="no"?>
<!DOCTYPE svg PUBLIC "-//W3C//DTD SVG 1.1//EN" "http://www.w3.org/Graphics/SVG/1.1/DTD/svg11.dtd">
<svg width="100%" height="100%" viewBox="0 0 100 100" version="1.1" xmlns="http://www.w3.org/2000/svg" xmlns:xlink="http://www.w3.org/1999/xlink" xml:space="preserve" style="fill-rule:evenodd;clip-rule:evenodd;stroke-linejoin:round;stroke-miterlimit:1.41421;">
    <g transform="matrix(1,0,0,1,-28.8535,39.8509)">
        <path d="M114.614,12.228L114.614,55.002L107.534,55.002L107.534,48.996L74.33,48.996L74.33,55.002L67.25,55.002L67.25,12.228L114.614,12.228ZM74.33,18.429L74.33,42.795L107.534,42.795L107.534,18.429L74.33,18.429ZM53.92,-12.577C49.623,-17.492 44.822,-21.886 39.516,-25.76L44.448,-31.375C49.754,-27.73 54.62,-23.498 59.047,-18.68L53.92,-12.577ZM50.746,10.617C45.994,5.181 41.062,0.786 35.951,-2.567L40.737,-8.377C46.563,-4.439 51.658,-0.077 56.02,4.709L50.746,10.617ZM34.535,48.019C40.981,39.588 46.677,29.562 51.625,17.941L56.948,23.41C52.065,35.259 46.531,45.496 40.346,54.123L34.535,48.019ZM59.633,5.539C68.878,-3.511 75.242,-15.783 78.725,-31.278L85.659,-29.178C82.175,-13.163 75.128,0.444 64.516,11.642L59.633,5.539ZM117.641,10.91C106.378,-1.948 98.37,-15.376 93.617,-29.373L99.916,-32.059C104.962,-18.224 112.498,-6.034 122.524,4.513L117.641,10.91Z" style="fill-rule:nonzero;"/>
    </g>
</svg>
