<?xml version="1.0" encoding="UTF-8" standalone="no"?>
<!DOCTYPE svg PUBLIC "-//W3C//DTD SVG 1.1//EN" "http://www.w3.org/Graphics/SVG/1.1/DTD/svg11.dtd">
<svg width="100%" height="100%" viewBox="0 0 100 100" version="1.1" xmlns="http://www.w3.org/2000/svg" xmlns:xlink="http://www.w3.org/1999/xlink" xml:space="preserve" style="fill-rule:evenodd;clip-rule:evenodd;stroke-linejoin:round;stroke-miterlimit:1.41421;">
    <g transform="matrix(1,0,0,1,-28.8535,39.8509)">
        <path d="M98.354,19.015C103.66,31.418 112.547,40.923 125.014,47.531L119.252,54.22C107.175,45.627 98.875,35.552 94.35,23.996C91.843,37.765 83.201,48.475 68.422,56.125L63.442,49.826C78.774,43.315 87.579,33.045 89.858,19.015L64.955,19.015L64.955,12.716L71.547,12.716L71.547,-18.192L89.955,-18.192L89.955,-34.989L96.84,-34.989L96.84,-18.192L115.932,-18.192L115.932,12.716L123.647,12.716L123.647,19.015L98.354,19.015ZM90.151,-11.795L78.237,-11.795L78.237,12.716L90.151,12.716L90.151,-11.795ZM96.645,-11.795L96.645,12.716L109.242,12.716L109.242,-11.795L96.645,-11.795ZM62.66,-25.858L62.66,39.621L42.739,39.621L42.739,47.726L36.44,47.726L36.44,-25.858L62.66,-25.858ZM42.739,-19.657L42.739,3.341L56.362,3.341L56.362,-19.657L42.739,-19.657ZM42.739,9.347L42.739,33.517L56.362,33.517L56.362,9.347L42.739,9.347Z" style="fill-rule:nonzero;"/>
    </g>
</svg>
