<?xml version="1.0" encoding="UTF-8" standalone="no"?>
<!DOCTYPE svg PUBLIC "-//W3C//DTD SVG 1.1//EN" "http://www.w3.org/Graphics/SVG/1.1/DTD/svg11.dtd">
<svg width="100%" height="100%" viewBox="0 0 100 100" version="1.1" xmlns="http://www.w3.org/2000/svg" xmlns:xlink="http://www.w3.org/1999/xlink" xml:space="preserve" style="fill-rule:evenodd;clip-rule:evenodd;stroke-linejoin:round;stroke-miterlimit:1.41421;">
    <g transform="matrix(1,0,0,1,-28.8535,39.8509)">
        <path d="M96.938,29.709C96.905,29.643 96.824,29.546 96.694,29.416C96.563,29.253 96.482,29.123 96.45,29.025C92.315,22.677 89.109,15.011 86.83,6.027C84.519,10.975 82.354,15.076 80.336,18.332L75.209,12.912C82.534,0.9 87.449,-14.92 89.955,-34.549L96.938,-33.28C95.994,-26.704 94.92,-20.731 93.715,-15.36L121.938,-15.36L121.938,-8.768L114.614,-8.768C113.116,6.466 109.828,19.129 104.75,29.22C110.479,36.284 117.169,42.16 124.819,46.847L119.838,53.927C112.84,48.654 106.573,42.518 101.039,35.519C96.059,43.299 88.784,50.102 79.213,55.929L74.233,49.826C84.031,44.78 91.599,38.074 96.938,29.709ZM100.356,23.117C104.197,14.328 106.655,3.699 107.729,-8.768L92.055,-8.768C91.795,-7.889 91.29,-6.261 90.541,-3.885C92.527,6.662 95.798,15.662 100.356,23.117ZM54.653,-16.873L54.653,-34.989L61.342,-34.989L61.342,-16.873L81.557,-16.873L81.557,-10.477L61.342,-10.477L61.342,47.433C61.342,50.461 60.642,52.43 59.242,53.341C58.136,53.927 56.345,54.22 53.871,54.22C50.551,54.22 47.052,53.927 43.373,53.341L42.446,45.92C46.059,46.994 49.168,47.531 51.772,47.531C53.692,47.531 54.653,46.457 54.653,44.308L54.653,-10.477L33.852,-10.477L33.852,-16.873L54.653,-16.873ZM73.012,-18.094C71.222,-22.521 68.894,-26.655 66.03,-30.496L72.133,-33.573C74.542,-30.545 77.016,-26.541 79.555,-21.561L73.012,-18.094ZM46.45,14.035C43.194,8.11 39.548,3.032 35.512,-1.2L41.03,-5.057C44.936,-1.183 48.533,3.602 51.821,9.298L46.45,14.035ZM32.534,33.029C38.849,28.667 44.708,23.735 50.112,18.234L52.651,24.142C47.345,30.034 41.843,35.194 36.147,39.621L32.534,33.029ZM62.416,10.617C66.29,5.311 69.334,-0.418 71.547,-6.571L78.334,-3.202C75.502,2.495 72.003,8.24 67.836,14.035L62.416,10.617ZM77.455,39.035C72.605,32.752 67.299,27.316 61.537,22.726L65.834,18.234C71.824,22.596 77.39,27.593 82.534,33.224L77.455,39.035Z" style="fill-rule:nonzero;"/>
    </g>
</svg>
