<?xml version="1.0" encoding="UTF-8" standalone="no"?>
<!DOCTYPE svg PUBLIC "-//W3C//DTD SVG 1.1//EN" "http://www.w3.org/Graphics/SVG/1.1/DTD/svg11.dtd">
<svg width="100%" height="100%" viewBox="0 0 100 100" version="1.1" xmlns="http://www.w3.org/2000/svg" xmlns:xlink="http://www.w3.org/1999/xlink" xml:space="preserve" style="fill-rule:evenodd;clip-rule:evenodd;stroke-linejoin:round;stroke-miterlimit:1.41421;">
    <g transform="matrix(1,0,0,1,-28.8535,39.8509)">
        <path d="M108.51,-19.364L108.51,43.527C108.51,47.173 107.534,49.712 105.58,51.144C103.953,52.414 100.828,53.048 96.205,53.048C91.485,53.048 86.277,52.739 80.58,52.121L79.311,43.918C85.951,44.796 91.485,45.236 95.912,45.236C98.321,45.236 99.786,44.731 100.307,43.722C100.698,43.039 100.893,41.883 100.893,40.255L100.893,-19.364L35.317,-19.364L35.317,-25.858L122.133,-25.858L122.133,-19.364L108.51,-19.364ZM86.098,-5.204L86.098,28.341L55.58,28.341L55.58,36.447L48.5,36.447L48.5,-5.204L86.098,-5.204ZM55.58,1.095L55.58,21.945L79.018,21.945L79.018,1.095L55.58,1.095Z" style="fill-rule:nonzero;"/>
    </g>
</svg>
