<?xml version="1.0" encoding="UTF-8" standalone="no"?>
<!DOCTYPE svg PUBLIC "-//W3C//DTD SVG 1.1//EN" "http://www.w3.org/Graphics/SVG/1.1/DTD/svg11.dtd">
<svg width="100%" height="100%" viewBox="0 0 100 100" version="1.1" xmlns="http://www.w3.org/2000/svg" xmlns:xlink="http://www.w3.org/1999/xlink" xml:space="preserve" style="fill-rule:evenodd;clip-rule:evenodd;stroke-linejoin:round;stroke-miterlimit:1.41421;">
    <g transform="matrix(1,0,0,1,-28.8535,39.8509)">
        <path d="M59.438,-21.854C57.615,-11.795 50.877,-4.325 39.223,0.558L34.926,-4.569C45.278,-8.866 51.251,-14.465 52.846,-21.366L37.221,-21.366L37.221,-27.176L53.237,-27.176L53.237,-34.989L59.926,-34.989L59.926,-27.567L79.018,-27.567C78.302,-17.769 77.569,-11.6 76.821,-9.061C75.714,-5.513 72.817,-3.739 68.129,-3.739C65.232,-3.739 62.433,-3.95 59.731,-4.373L58.51,-10.477C61.407,-9.924 63.979,-9.647 66.225,-9.647C68.666,-9.647 70.131,-10.542 70.619,-12.332C71.173,-14.481 71.645,-17.655 72.035,-21.854L59.438,-21.854ZM92.006,39.23L93.422,39.621C101.397,41.899 110.593,45.138 121.01,49.337L114.907,55.441C104.49,50.363 94.724,46.392 85.61,43.527L91.909,39.23L46.84,39.23L46.84,-0.174L110.61,-0.174L110.61,39.23L92.006,39.23ZM53.92,5.148L53.92,11.203L103.627,11.203L103.627,5.148L53.92,5.148ZM53.92,16.281L53.92,22.336L103.627,22.336L103.627,16.281L53.92,16.281ZM53.92,27.414L53.92,33.81L103.627,33.81L103.627,27.414L53.92,27.414ZM118.032,-29.959L118.032,-4.373L83.852,-4.373L83.852,-29.959L118.032,-29.959ZM90.541,-24.344L90.541,-9.989L111.342,-9.989L111.342,-24.344L90.541,-24.344ZM35.219,50.216C46.124,47.97 55.662,44.341 63.832,39.328L70.326,43.429C60.398,49.647 50.535,53.944 40.737,56.32L35.219,50.216Z" style="fill-rule:nonzero;"/>
    </g>
</svg>
