<?xml version="1.0" encoding="UTF-8" standalone="no"?>
<!DOCTYPE svg PUBLIC "-//W3C//DTD SVG 1.1//EN" "http://www.w3.org/Graphics/SVG/1.1/DTD/svg11.dtd">
<svg width="100%" height="100%" viewBox="0 0 100 100" version="1.1" xmlns="http://www.w3.org/2000/svg" xmlns:xlink="http://www.w3.org/1999/xlink" xml:space="preserve" style="fill-rule:evenodd;clip-rule:evenodd;stroke-linejoin:round;stroke-miterlimit:1.41421;">
    <g transform="matrix(1,0,0,1,-28.8535,39.8509)">
        <path d="M49.233,0.216C44.513,-6.424 39.955,-11.893 35.561,-16.19L40.346,-21.073L43.764,-17.264C48.028,-23.221 51.43,-29.194 53.969,-35.184L60.756,-31.864C56.524,-24.67 52.13,-18.241 47.573,-12.577C49.395,-10.363 51.218,-7.938 53.041,-5.301C56.459,-10.314 60.056,-16.304 63.832,-23.27L70.034,-19.803C63.979,-9.777 57.452,-0.5 50.453,8.029L55.825,7.736C61.586,7.345 65.134,7.069 66.469,6.906C64.972,3.358 63.702,0.656 62.66,-1.2L67.934,-3.69C71.319,2.072 74.086,8.501 76.235,15.597L70.229,18.625C69.317,15.272 68.65,13.009 68.227,11.837L66.86,12.033C64.841,12.423 61.977,12.847 58.266,13.302L58.266,55.002L51.674,55.002L51.674,14.035C48.224,14.523 42.983,15.011 35.951,15.5L33.852,8.615C34.601,8.582 35.821,8.55 37.514,8.517C39.011,8.485 40.151,8.452 40.932,8.42L43.373,8.322C43.764,7.768 44.838,6.287 46.596,3.879C47.54,2.609 48.256,1.649 48.744,0.998L49.233,0.216ZM120.229,-27.664L120.229,54.22L113.588,54.22L113.588,47.629L85.073,47.629L85.073,54.22L78.578,54.22L78.578,-27.664L120.229,-27.664ZM85.073,-21.463L85.073,6.125L95.961,6.125L95.961,-21.463L85.073,-21.463ZM85.073,12.13L85.073,41.427L95.961,41.427L95.961,12.13L85.073,12.13ZM113.588,41.427L113.588,12.13L102.162,12.13L102.162,41.427L113.588,41.427ZM113.588,6.125L113.588,-21.463L102.162,-21.463L102.162,6.125L113.588,6.125ZM35.121,44.601C37.53,38.319 39.142,30.262 39.955,20.431L46.45,21.31C45.506,32.117 43.927,41.118 41.713,48.312L35.121,44.601ZM67.543,43.722C66.176,35.031 64.304,27.365 61.928,20.724L67.641,19.015C70.375,25.168 72.638,32.508 74.428,41.037L67.543,43.722Z" style="fill-rule:nonzero;"/>
    </g>
</svg>
