<?xml version="1.0" encoding="UTF-8" standalone="no"?>
<!DOCTYPE svg PUBLIC "-//W3C//DTD SVG 1.1//EN" "http://www.w3.org/Graphics/SVG/1.1/DTD/svg11.dtd">
<svg width="100%" height="100%" viewBox="0 0 100 100" version="1.1" xmlns="http://www.w3.org/2000/svg" xmlns:xlink="http://www.w3.org/1999/xlink" xml:space="preserve" style="fill-rule:evenodd;clip-rule:evenodd;stroke-linejoin:round;stroke-miterlimit:1.41421;">
    <g transform="matrix(1,0,0,1,-28.8535,39.8509)">
        <path d="M89.125,19.796C87.237,35.942 79.148,48.003 64.858,55.978L59.926,49.923C73.761,43.641 81.736,32.166 83.852,15.5L62.856,15.5L62.856,9.103L84.242,9.103L84.242,-10.575L67.934,-10.575L67.934,-16.873L84.242,-16.873L84.242,-34.989L91.323,-34.989L91.323,-16.873L111.733,-16.873L111.733,9.103L123.012,9.103L123.012,15.5L93.715,15.5C98.923,29.823 108.657,40.516 122.914,47.58L118.129,54.318C110.838,50.347 104.132,44.373 98.012,36.398C93.813,30.832 90.851,25.298 89.125,19.796ZM91.323,9.103L104.848,9.103L104.848,-10.575L91.323,-10.575L91.323,9.103ZM33.119,15.695C35.105,8.175 36.44,-1.053 37.123,-11.991L43.52,-10.965C43.129,0.786 41.729,11.007 39.321,19.699L33.119,15.695ZM61.83,5.002C60.007,-1.899 57.908,-7.889 55.532,-12.967L60.805,-15.799C63.604,-10.298 65.981,-4.699 67.934,0.998L61.83,5.002ZM47.035,-34.989L54.116,-34.989L54.116,55.002L47.035,55.002L47.035,-34.989Z" style="fill-rule:nonzero;"/>
    </g>
</svg>
