<?xml version="1.0" encoding="UTF-8" standalone="no"?>
<!DOCTYPE svg PUBLIC "-//W3C//DTD SVG 1.1//EN" "http://www.w3.org/Graphics/SVG/1.1/DTD/svg11.dtd">
<svg width="100%" height="100%" viewBox="0 0 100 100" version="1.1" xmlns="http://www.w3.org/2000/svg" xmlns:xlink="http://www.w3.org/1999/xlink" xml:space="preserve" style="fill-rule:evenodd;clip-rule:evenodd;stroke-linejoin:round;stroke-miterlimit:1.41421;">
    <g transform="matrix(1,0,0,1,-28.8535,39.8509)">
        <path d="M82.289,-23.465L116.762,-23.465L116.762,-17.459L101.772,-17.459L101.576,-16.678C99.656,-11.405 97.394,-6.213 94.789,-1.102L121.791,-1.102L121.791,5.099L35.854,5.099L35.854,-1.102L62.367,-1.102C60.382,-6.994 58.103,-12.446 55.532,-17.459L40.834,-17.459L40.834,-23.465L74.672,-23.465L74.672,-34.989L82.289,-34.989L82.289,-23.465ZM63.246,-17.459C65.33,-13.228 67.527,-7.775 69.838,-1.102L87.367,-1.102C89.516,-5.269 91.648,-10.493 93.764,-16.776L93.959,-17.459L63.246,-17.459ZM108.168,12.326L108.168,55.002L100.991,55.002L100.991,50.412L56.655,50.412L56.655,55.197L49.33,55.197L49.33,12.326L108.168,12.326ZM56.655,18.332L56.655,27.804L100.991,27.804L100.991,18.332L56.655,18.332ZM56.655,33.712L56.655,44.406L100.991,44.406L100.991,33.712L56.655,33.712Z" style="fill-rule:nonzero;"/>
    </g>
</svg>
