<?xml version="1.0" encoding="UTF-8" standalone="no"?>
<!DOCTYPE svg PUBLIC "-//W3C//DTD SVG 1.1//EN" "http://www.w3.org/Graphics/SVG/1.1/DTD/svg11.dtd">
<svg width="100%" height="100%" viewBox="0 0 100 100" version="1.1" xmlns="http://www.w3.org/2000/svg" xmlns:xlink="http://www.w3.org/1999/xlink" xml:space="preserve" style="fill-rule:evenodd;clip-rule:evenodd;stroke-linejoin:round;stroke-miterlimit:1.41421;">
    <g transform="matrix(1,0,0,1,-28.8535,39.8509)">
        <path d="M59.828,-20.877L59.828,-33.475L67.153,-33.475L67.153,-20.877L89.809,-20.877L89.809,-33.475L97.133,-33.475L97.133,-20.877L121.205,-20.877L121.205,-14.286L97.133,-14.286L97.133,-3.739L89.809,-3.739L89.809,-14.286L67.153,-14.286L67.153,-3.739L59.828,-3.739L59.828,-14.286L36.391,-14.286L36.391,-20.877L59.828,-20.877ZM60.024,12.521L60.024,55.246L52.944,55.246L52.944,20.724L52.114,21.554C48.5,25.363 44.366,28.992 39.711,32.443L34.828,26.828C46.808,18.69 55.776,8.794 61.733,-2.86L68.422,-0.077C66.013,4.123 63.214,8.322 60.024,12.521ZM85.805,18.039C95.245,14.425 103.806,9.624 111.489,3.634L117.397,8.859C107.534,15.76 97.003,21.115 85.805,24.923L85.805,40.06C85.805,42.502 86.57,44.032 88.1,44.65C89.858,45.399 93.325,45.773 98.5,45.773C101.951,45.773 105.108,45.61 107.973,45.285C111.228,44.764 113.1,43.25 113.588,40.744C114.011,38.921 114.386,34.657 114.711,27.951L122.182,30.441C121.694,38.058 121.059,43.185 120.278,45.822C119.366,49.272 116.843,51.356 112.709,52.072C109.161,52.593 104.181,52.853 97.768,52.853C89.174,52.853 83.884,52.251 81.899,51.046C79.848,49.777 78.823,47.368 78.823,43.82L78.823,-1.444L85.805,-1.444L85.805,18.039Z" style="fill-rule:nonzero;"/>
    </g>
</svg>
