<?xml version="1.0" encoding="UTF-8" standalone="no"?>
<!DOCTYPE svg PUBLIC "-//W3C//DTD SVG 1.1//EN" "http://www.w3.org/Graphics/SVG/1.1/DTD/svg11.dtd">
<svg width="100%" height="100%" viewBox="0 0 100 100" version="1.1" xmlns="http://www.w3.org/2000/svg" xmlns:xlink="http://www.w3.org/1999/xlink" xml:space="preserve" style="fill-rule:evenodd;clip-rule:evenodd;stroke-linejoin:round;stroke-miterlimit:1.41421;">
    <g transform="matrix(1,0,0,1,-28.8535,39.8509)">
        <path d="M62.905,21.701L62.905,50.021L42.787,50.021L42.787,55.002L36.391,55.002L36.391,21.701L62.905,21.701ZM42.787,27.511L42.787,44.211L56.508,44.211L56.508,27.511L42.787,27.511ZM107.924,-7.987L107.924,-2.762L80.922,-2.762L80.922,-7.694C77.472,-3.885 73.207,-0.044 68.129,3.83L63.491,-1.248C75.502,-9.191 83.966,-20.064 88.881,-33.866L96.596,-33.866C103.692,-21.17 113.198,-11.063 125.112,-3.543L120.815,2.56C116.388,-0.37 112.091,-3.885 107.924,-7.987ZM81.703,-8.573L107.289,-8.573C101.495,-14.497 96.775,-20.666 93.129,-27.079C90.362,-20.308 86.554,-14.139 81.703,-8.573ZM118.617,4.611L118.617,47.921C118.617,52.121 116.453,54.22 112.123,54.22C110.105,54.22 108.201,54.09 106.41,53.83L105.532,47.043C107.224,47.433 108.754,47.629 110.121,47.629C111.521,47.629 112.221,46.684 112.221,44.796L112.221,29.318L103.725,29.318L103.725,52.511L97.719,52.511L97.719,29.318L89.809,29.318L89.809,52.511L83.803,52.511L83.803,29.318L75.795,29.318L75.795,55.002L69.496,55.002L69.496,4.611L118.617,4.611ZM75.795,10.519L75.795,23.8L83.803,23.8L83.803,10.519L75.795,10.519ZM112.221,23.8L112.221,10.519L103.725,10.519L103.725,23.8L112.221,23.8ZM89.809,10.519L89.809,23.8L97.719,23.8L97.719,10.519L89.809,10.519ZM37.709,-30.789L61.586,-30.789L61.586,-24.784L37.709,-24.784L37.709,-30.789ZM33.705,-17.704L65.785,-17.704L65.785,-11.6L33.705,-11.6L33.705,-17.704ZM37.709,-4.471L61.586,-4.471L61.586,1.535L37.709,1.535L37.709,-4.471ZM37.709,8.615L61.586,8.615L61.586,14.621L37.709,14.621L37.709,8.615Z" style="fill-rule:nonzero;"/>
    </g>
</svg>
