<?xml version="1.0" encoding="UTF-8" standalone="no"?>
<!DOCTYPE svg PUBLIC "-//W3C//DTD SVG 1.1//EN" "http://www.w3.org/Graphics/SVG/1.1/DTD/svg11.dtd">
<svg width="100%" height="100%" viewBox="0 0 100 100" version="1.1" xmlns="http://www.w3.org/2000/svg" xmlns:xlink="http://www.w3.org/1999/xlink" xml:space="preserve" style="fill-rule:evenodd;clip-rule:evenodd;stroke-linejoin:round;stroke-miterlimit:1.41421;">
    <g transform="matrix(1,0,0,1,-28.8535,39.8509)">
        <path d="M90.004,14.816C88.865,5.864 88.295,-5.138 88.295,-18.192L88.295,-34.989L94.692,-34.989L94.692,-19.168C94.692,-6.473 95.131,4.058 96.01,12.423L96.205,14.425L109.682,14.425C107.696,12.342 105.857,10.682 104.164,9.445L109.194,6.32C111.082,7.655 113.181,9.526 115.492,11.935L111.782,14.425L122.67,14.425L122.67,19.943L96.987,19.943C97.898,25.347 99.591,30.181 102.065,34.445C104.604,31.515 107.241,27.544 109.975,22.531L115.59,25.656C112.791,30.636 109.454,35.324 105.58,39.718C105.873,40.142 106.117,40.434 106.313,40.597C109.633,44.731 112.123,46.798 113.784,46.798C115.281,46.798 116.485,42.811 117.397,34.836L123.598,38.205C121.677,49.142 119.041,54.611 115.688,54.611C111.554,54.611 106.72,51.144 101.186,44.211C95.326,49.614 88.832,53.586 81.703,56.125L77.504,50.998C85.479,48.101 92.201,44.145 97.67,39.132C94.187,33.436 91.892,27.17 90.785,20.334L77.016,20.334C76.951,20.594 76.918,21.099 76.918,21.847C76.918,22.108 76.837,23.377 76.674,25.656C81.59,28.553 86.131,31.938 90.297,35.812L86.391,41.134C82.68,37.228 79.278,34.022 76.186,31.515C74.884,41.574 70.75,49.647 63.784,55.734L59.291,50.705C64.793,46.408 68.194,40.874 69.496,34.103C70.082,30.913 70.489,26.323 70.717,20.334L61.879,20.334L61.879,14.816L90.004,14.816ZM46.205,8.42C43.08,18.966 39.288,28.032 34.828,35.617L31.215,28.488C37.563,18.299 42.299,6.336 45.424,-7.401L33.412,-7.401L33.412,-13.797L46.205,-13.797L46.205,-34.891L52.602,-34.891L52.602,-13.797L62.221,-13.797L62.221,-7.401L52.602,-7.401L52.602,3C56.28,6.059 59.552,9.461 62.416,13.205L58.315,18.576C56.915,15.874 55.011,13.009 52.602,9.982L52.602,55.002L46.205,55.002L46.205,8.42ZM71.791,-4.08C68.569,-9.452 65.346,-13.748 62.123,-16.971L65.492,-21.805C65.883,-21.349 66.729,-20.34 68.032,-18.778C70.375,-23.237 72.475,-28.202 74.33,-33.67L79.799,-30.496C77.358,-24.474 74.526,-19.071 71.303,-14.286C71.791,-13.569 72.41,-12.609 73.159,-11.405C73.94,-10.168 74.461,-9.354 74.721,-8.963C77.195,-13.325 79.327,-17.427 81.117,-21.268L86.098,-18.289C81.899,-9.826 77.439,-2.518 72.719,3.634C75.714,3.309 78.513,3 81.117,2.707C81.117,2.576 81.052,2.316 80.922,1.925C80.694,0.754 80.157,-1.086 79.311,-3.592L83.803,-4.666C85.854,0.347 87.221,5.343 87.905,10.324L82.826,12.13C82.794,11.935 82.647,10.959 82.387,9.201C82.257,8.257 82.127,7.492 81.996,6.906C76.821,8.208 70.424,9.217 62.807,9.933L61.196,4.318C61.586,4.285 62.221,4.253 63.1,4.22C63.816,4.188 64.353,4.155 64.711,4.123C65.46,4.123 66.062,4.09 66.518,4.025L66.909,3.439C67.95,1.974 69.578,-0.532 71.791,-4.08ZM104.994,-5.301C101.707,-10.542 98.517,-14.676 95.424,-17.704L98.793,-22.391C98.956,-22.196 99.379,-21.675 100.063,-20.829C100.584,-20.243 101.007,-19.722 101.332,-19.266C103.937,-24.084 106.004,-28.82 107.534,-33.475L113.1,-30.301C110.528,-24.605 107.631,-19.461 104.409,-14.871C105.711,-12.983 106.817,-11.291 107.729,-9.793C109.715,-13.114 111.879,-17.118 114.223,-21.805L119.203,-18.485C116.209,-12.951 112.075,-6.457 106.801,0.998C110.61,0.77 113.507,0.542 115.492,0.314C114.646,-2.062 113.784,-4.129 112.905,-5.887L117.592,-7.498C119.578,-3.625 121.352,0.981 122.914,6.32L118.032,8.908C117.901,8.42 117.657,7.508 117.299,6.173C117.071,5.327 116.909,4.709 116.811,4.318C110.431,5.653 104.197,6.58 98.11,7.101L96.596,1.535C98.419,1.535 99.754,1.502 100.6,1.437C102.52,-1.427 103.985,-3.674 104.994,-5.301Z" style="fill-rule:nonzero;"/>
    </g>
</svg>
