<?xml version="1.0" encoding="UTF-8" standalone="no"?>
<!DOCTYPE svg PUBLIC "-//W3C//DTD SVG 1.1//EN" "http://www.w3.org/Graphics/SVG/1.1/DTD/svg11.dtd">
<svg width="100%" height="100%" viewBox="0 0 100 100" version="1.1" xmlns="http://www.w3.org/2000/svg" xmlns:xlink="http://www.w3.org/1999/xlink" xml:space="preserve" style="fill-rule:evenodd;clip-rule:evenodd;stroke-linejoin:round;stroke-miterlimit:1.41421;">
    <g transform="matrix(1,0,0,1,-28.8535,39.8509)">
        <path d="M82.338,-32.401L82.338,-15.164C82.338,13.384 95.636,33.42 122.231,44.943L116.323,51.828C96.433,41.737 84.031,27.007 79.116,7.638C75.828,30.783 63.328,46.212 41.616,53.927L36.244,47.336C50.535,43.234 60.528,35.926 66.225,25.412C71.759,15.255 74.526,2.121 74.526,-13.993L74.526,-32.401L82.338,-32.401ZM41.225,14.523C46.759,6.092 50.567,-3.25 52.651,-13.504L60.463,-11.893C57.371,0.509 53.302,10.812 48.256,19.015L41.225,14.523ZM93.959,11.398C100.307,2.446 105.564,-7.01 109.731,-16.971L117.739,-13.504C112.53,-2.762 106.736,6.711 100.356,14.914L93.959,11.398Z" style="fill-rule:nonzero;"/>
    </g>
</svg>
