<?xml version="1.0" encoding="UTF-8" standalone="no"?>
<!DOCTYPE svg PUBLIC "-//W3C//DTD SVG 1.1//EN" "http://www.w3.org/Graphics/SVG/1.1/DTD/svg11.dtd">
<svg width="100%" height="100%" viewBox="0 0 100 100" version="1.1" xmlns="http://www.w3.org/2000/svg" xmlns:xlink="http://www.w3.org/1999/xlink" xml:space="preserve" style="fill-rule:evenodd;clip-rule:evenodd;stroke-linejoin:round;stroke-miterlimit:1.41421;">
    <g transform="matrix(1,0,0,1,-28.8535,39.8509)">
        <path d="M81.996,-4.471L81.996,2.414L111.098,2.414L111.098,25.119L81.996,25.119L81.996,32.931L122.28,32.931L122.28,39.132L81.996,39.132L81.996,55.05L74.916,55.05L74.916,39.132L35.317,39.132L35.317,32.931L74.916,32.931L74.916,25.119L46.401,25.119L46.401,2.414L74.916,2.414L74.916,-4.471L58.217,-4.471L58.217,-17.899L37.319,-17.899L37.319,-24.1L58.217,-24.1L58.217,-34.989L65.297,-34.989L65.297,-24.1L91.616,-24.1L91.616,-34.989L98.696,-34.989L98.696,-24.1L120.278,-24.1L120.278,-17.899L98.696,-17.899L98.696,-4.471L81.996,-4.471ZM74.916,8.42L53.383,8.42L53.383,19.113L74.916,19.113L74.916,8.42ZM81.996,8.42L81.996,19.113L104.018,19.113L104.018,8.42L81.996,8.42ZM91.616,-17.899L65.297,-17.899L65.297,-10.282L91.616,-10.282L91.616,-17.899Z" style="fill-rule:nonzero;"/>
    </g>
</svg>
