<?xml version="1.0" encoding="UTF-8" standalone="no"?>
<!DOCTYPE svg PUBLIC "-//W3C//DTD SVG 1.1//EN" "http://www.w3.org/Graphics/SVG/1.1/DTD/svg11.dtd">
<svg width="100%" height="100%" viewBox="0 0 100 100" version="1.1" xmlns="http://www.w3.org/2000/svg" xmlns:xlink="http://www.w3.org/1999/xlink" xml:space="preserve" style="fill-rule:evenodd;clip-rule:evenodd;stroke-linejoin:round;stroke-miterlimit:1.41421;">
    <g transform="matrix(1,0,0,1,-28.8535,39.8509)">
        <path d="M74.916,-13.26L74.916,-19.071L36.293,-19.071L36.293,-24.784L74.916,-24.784L74.916,-34.989L81.996,-34.989L81.996,-24.784L121.303,-24.784L121.303,-19.071L81.996,-19.071L81.996,-13.26L110.61,-13.26L110.61,3.927L81.996,3.927L81.996,9.738L112.026,9.738L112.026,20.529L123.842,20.529L123.842,26.437L112.026,26.437L112.026,41.818L105.092,41.818L105.092,37.521L81.996,37.521L81.996,47.921C81.996,50.721 81.297,52.609 79.897,53.586C78.66,54.464 76.43,54.904 73.207,54.904C69.627,54.904 65.851,54.709 61.879,54.318L60.707,47.14C64.972,47.987 68.569,48.41 71.498,48.41C73.777,48.41 74.916,47.449 74.916,45.529L74.916,37.521L42.006,37.521L42.006,32.004L74.916,32.004L74.916,26.242L33.803,26.242L33.803,20.724L74.916,20.724L74.916,15.255L41.909,15.255L41.909,9.738L74.916,9.738L74.916,3.927L46.889,3.927L46.889,-13.26L74.916,-13.26ZM74.916,-8.084L53.578,-8.084L53.578,-1.395L74.916,-1.395L74.916,-8.084ZM81.996,-8.084L81.996,-1.395L103.92,-1.395L103.92,-8.084L81.996,-8.084ZM81.996,32.004L105.092,32.004L105.092,26.242L81.996,26.242L81.996,32.004ZM81.996,20.724L105.092,20.724L105.092,15.255L81.996,15.255L81.996,20.724Z" style="fill-rule:nonzero;"/>
    </g>
</svg>
