<?xml version="1.0" encoding="UTF-8" standalone="no"?>
<!DOCTYPE svg PUBLIC "-//W3C//DTD SVG 1.1//EN" "http://www.w3.org/Graphics/SVG/1.1/DTD/svg11.dtd">
<svg width="100%" height="100%" viewBox="0 0 100 100" version="1.1" xmlns="http://www.w3.org/2000/svg" xmlns:xlink="http://www.w3.org/1999/xlink" xml:space="preserve" style="fill-rule:evenodd;clip-rule:evenodd;stroke-linejoin:round;stroke-miterlimit:1.41421;">
    <g transform="matrix(1,0,0,1,-28.8535,39.8509)">
        <path d="M86.342,-1.883C86.83,19.015 98.224,35.112 120.522,46.408L115.248,53.732C98.354,43.446 87.856,31.206 83.754,17.013C80.434,34.298 70.652,47.075 54.409,55.343L49.037,49.435C62.351,43.608 71.238,34.575 75.698,22.336C77.911,16.216 79.018,8.306 79.018,-1.395L79.018,-18.68L86.342,-18.68L86.342,-1.883ZM49.916,-21.805L49.916,-1.004C49.916,14.751 49.184,26.486 47.719,34.201C46.45,41.199 43.927,48.198 40.151,55.197L34.34,49.875C39.939,39.295 42.739,23.833 42.739,3.488L42.739,-28.299L119.692,-28.299L119.692,-21.805L49.916,-21.805ZM54.848,22.14C58.852,14.816 61.716,5.978 63.442,-4.373L70.424,-2.762C68.504,9.25 65.346,19.015 60.951,26.535L54.848,22.14ZM93.959,16.33C100.144,8.257 104.767,0.379 107.826,-7.303L114.858,-3.788C110.105,5.587 104.994,13.563 99.526,20.138L93.959,16.33Z" style="fill-rule:nonzero;"/>
    </g>
</svg>
