<?xml version="1.0" encoding="UTF-8" standalone="no"?>
<!DOCTYPE svg PUBLIC "-//W3C//DTD SVG 1.1//EN" "http://www.w3.org/Graphics/SVG/1.1/DTD/svg11.dtd">
<svg width="100%" height="100%" viewBox="0 0 100 100" version="1.1" xmlns="http://www.w3.org/2000/svg" xmlns:xlink="http://www.w3.org/1999/xlink" xml:space="preserve" style="fill-rule:evenodd;clip-rule:evenodd;stroke-linejoin:round;stroke-miterlimit:1.41421;">
    <g transform="matrix(1,0,0,1,-28.8535,39.8509)">
        <path d="M76.088,-12.088L76.088,5.197C76.088,16.558 75.291,25.9 73.696,33.224C72.003,41.232 68.797,48.426 64.076,54.806L58.608,49.191C63.002,43.429 65.965,36.235 67.494,27.609C68.504,21.522 69.008,14.051 69.008,5.197L69.008,-18.387L91.127,-18.387L91.127,-33.377L98.11,-33.377L98.11,-18.387L121.401,-18.387L121.401,-12.088L76.088,-12.088ZM47.231,-14.676L47.231,-34.793L53.92,-34.793L53.92,-14.676L64.223,-14.676L64.223,-8.182L53.92,-8.182L53.92,10.812C58.998,9.217 62.53,8.045 64.516,7.296L65.004,13.107C61.814,14.409 58.119,15.776 53.92,17.209L53.92,48.019C53.92,50.851 53.285,52.739 52.016,53.683C50.974,54.562 48.94,55.002 45.912,55.002C42.787,55.002 39.825,54.806 37.026,54.416L35.707,47.238C38.604,47.824 41.339,48.117 43.91,48.117C46.124,48.117 47.231,47.189 47.231,45.334L47.231,19.406C43.78,20.448 39.744,21.554 35.121,22.726L33.119,16.037C38.914,14.832 43.617,13.726 47.231,12.716L47.231,-8.182L34.633,-8.182L34.633,-14.676L47.231,-14.676ZM80.825,43.136C80.825,43.104 80.89,42.908 81.02,42.55C81.117,42.355 81.183,42.176 81.215,42.013C85.349,29.676 89.076,13.742 92.397,-5.789L99.526,-4.471C95.717,15.06 91.941,30.262 88.198,41.134L87.709,42.502C95.001,42.013 103.106,41.02 112.026,39.523C109.715,33.826 106.378,27.186 102.016,19.601L107.826,16.525C114.304,27.17 119.871,38.27 124.526,49.826L117.787,54.123C116.485,50.314 115.33,47.287 114.321,45.041C114.19,45.073 113.995,45.106 113.735,45.138C113.507,45.171 113.328,45.203 113.198,45.236C103.041,47.515 90.574,49.403 75.795,50.9L73.207,43.625C75.812,43.462 77.716,43.332 78.92,43.234L80.825,43.136Z" style="fill-rule:nonzero;"/>
    </g>
</svg>
