<?xml version="1.0" encoding="UTF-8" standalone="no"?>
<!DOCTYPE svg PUBLIC "-//W3C//DTD SVG 1.1//EN" "http://www.w3.org/Graphics/SVG/1.1/DTD/svg11.dtd">
<svg width="100%" height="100%" viewBox="0 0 100 100" version="1.1" xmlns="http://www.w3.org/2000/svg" xmlns:xlink="http://www.w3.org/1999/xlink" xml:space="preserve" style="fill-rule:evenodd;clip-rule:evenodd;stroke-linejoin:round;stroke-miterlimit:1.41421;">
    <g transform="matrix(1,0,0,1,-28.8535,39.8509)">
        <path d="M83.364,-7.889C85.317,-0.044 88.588,7.264 93.178,14.035C98.191,9.477 102.927,4.009 107.387,-2.371L114.565,2.121C108.282,9.282 102.455,14.979 97.084,19.211C104.213,27.772 112.709,34.608 122.573,39.718L117.055,46.31C101.072,37.033 89.776,24.37 83.168,8.322L83.168,47.433C83.168,50.298 82.468,52.218 81.069,53.195C79.701,54.269 77.097,54.806 73.256,54.806C70.229,54.806 66.127,54.611 60.951,54.22L59.731,46.505C64.321,47.319 68.422,47.726 72.035,47.726C74.444,47.726 75.649,46.554 75.649,44.211L75.649,-7.889L36.83,-7.889L36.83,-14.481L75.649,-14.481L75.649,-33.377L83.168,-33.377L83.168,-14.481L121.352,-14.481L121.352,-7.889L83.364,-7.889ZM59.926,17.55C55.271,11.984 50.405,7.345 45.326,3.634L50.453,-1.444C55.759,2.3 60.724,6.694 65.346,11.74L59.926,17.55ZM36.342,40.304C48.842,34.054 60.138,26.73 70.229,18.332L72.621,24.826C64.614,31.987 54.05,39.311 40.932,46.798L36.342,40.304ZM105.239,-16.385C102.048,-20.617 98.484,-24.377 94.545,-27.664L100.356,-31.571C104.555,-28.25 108.282,-24.686 111.537,-20.877L105.239,-16.385Z" style="fill-rule:nonzero;"/>
    </g>
</svg>
