<?xml version="1.0" encoding="UTF-8" standalone="no"?>
<!DOCTYPE svg PUBLIC "-//W3C//DTD SVG 1.1//EN" "http://www.w3.org/Graphics/SVG/1.1/DTD/svg11.dtd">
<svg width="100%" height="100%" viewBox="0 0 100 100" version="1.1" xmlns="http://www.w3.org/2000/svg" xmlns:xlink="http://www.w3.org/1999/xlink" xml:space="preserve" style="fill-rule:evenodd;clip-rule:evenodd;stroke-linejoin:round;stroke-miterlimit:1.41421;">
    <g transform="matrix(1,0,0,1,-28.8535,39.8509)">
        <path d="M67.348,37.521C65.851,46.896 58.38,53.13 44.936,56.222L40.639,50.607C47.54,49.11 52.618,47.14 55.873,44.699C58.087,43.071 59.552,40.679 60.268,37.521L33.95,37.521L33.95,31.515L60.659,31.515L60.659,25.119L47.67,25.119L47.67,-11.405L80.678,-11.405L76.039,-14.774C80.434,-20.047 83.933,-26.818 86.537,-35.086L93.227,-33.573C92.804,-32.238 91.974,-30.008 90.737,-26.883L122.426,-26.883L122.426,-21.073L102.114,-21.073C103.123,-19.608 104.506,-17.345 106.264,-14.286L100.014,-11.502C98.354,-15.083 96.629,-18.273 94.838,-21.073L88.051,-21.073C86.163,-17.459 83.998,-14.237 81.557,-11.405L110.268,-11.405L110.268,25.119L97.914,25.119L97.914,31.515L123.94,31.515L123.94,37.521L98.256,37.521L98.256,54.904L91.176,54.904L91.176,37.521L67.348,37.521ZM67.739,31.515L90.834,31.515L90.834,25.119L67.739,25.119L67.739,31.515ZM103.334,19.943L103.334,14.084L54.555,14.084L54.555,19.943L103.334,19.943ZM103.334,9.005L103.334,3.976L54.555,3.976L54.555,9.005L103.334,9.005ZM103.334,-1.102L103.334,-6.082L54.555,-6.082L54.555,-1.102L103.334,-1.102ZM51.821,-26.883L78.92,-26.883L78.92,-21.073L64.321,-21.073L67.543,-14.383L61.44,-11.454C59.845,-15.555 58.445,-18.761 57.241,-21.073L48.842,-21.073C46.173,-16.353 43.097,-12.153 39.614,-8.475L34.828,-12.577C40.623,-18.989 45.082,-26.46 48.207,-34.989L54.75,-33.28C54.067,-31.717 53.09,-29.585 51.821,-26.883Z" style="fill-rule:nonzero;"/>
    </g>
</svg>
