<?xml version="1.0" encoding="UTF-8" standalone="no"?>
<!DOCTYPE svg PUBLIC "-//W3C//DTD SVG 1.1//EN" "http://www.w3.org/Graphics/SVG/1.1/DTD/svg11.dtd">
<svg width="100%" height="100%" viewBox="0 0 100 100" version="1.1" xmlns="http://www.w3.org/2000/svg" xmlns:xlink="http://www.w3.org/1999/xlink" xml:space="preserve" style="fill-rule:evenodd;clip-rule:evenodd;stroke-linejoin:round;stroke-miterlimit:1.41421;">
    <g transform="matrix(1,0,0,1,-28.8535,39.8509)">
        <path d="M77.944,-5.057L77.944,-20.975L57.387,-20.975L57.387,-27.371L123.842,-27.371L123.842,-20.975L102.455,-20.975L102.455,-5.057L120.229,-5.057L120.229,54.025L113.442,54.025L113.442,48.019L67.299,48.019L67.299,54.025L60.61,54.025L60.61,-5.057L77.944,-5.057ZM84.633,-5.057L95.717,-5.057L95.717,-20.975L84.633,-20.975L84.633,-5.057ZM78.334,0.949L67.299,0.949L67.299,41.916L78.334,41.916L78.334,0.949ZM84.633,0.949L84.633,41.916L95.717,41.916L95.717,0.949L84.633,0.949ZM102.016,0.949L102.016,41.916L113.442,41.916L113.442,0.949L102.016,0.949ZM50.6,-11.6L50.6,55.002L43.91,55.002L43.91,4.318C41.729,8.778 39.19,13.074 36.293,17.209L32.631,11.007C39.988,-0.451 45.88,-15.783 50.307,-34.989L57.094,-33.28C54.783,-24.328 52.618,-17.101 50.6,-11.6Z" style="fill-rule:nonzero;"/>
    </g>
</svg>
