<?xml version="1.0" encoding="UTF-8" standalone="no"?>
<!DOCTYPE svg PUBLIC "-//W3C//DTD SVG 1.1//EN" "http://www.w3.org/Graphics/SVG/1.1/DTD/svg11.dtd">
<svg width="100%" height="100%" viewBox="0 0 100 100" version="1.1" xmlns="http://www.w3.org/2000/svg" xmlns:xlink="http://www.w3.org/1999/xlink" xml:space="preserve" style="fill-rule:evenodd;clip-rule:evenodd;stroke-linejoin:round;stroke-miterlimit:1.41421;">
    <g transform="matrix(1,0,0,1,-28.8535,39.8509)">
        <path d="M63.979,10.421L113.637,10.421L113.637,54.025L106.215,54.025L106.215,48.019L65.785,48.019L65.785,54.025L58.364,54.025L58.364,18.722C52.374,26.437 45.929,32.768 39.028,37.716L34.242,32.004C48.761,21.294 59.275,7.264 65.785,-10.086L37.221,-10.086L37.221,-16.776L67.983,-16.776C69.513,-21.854 70.864,-27.583 72.035,-33.963L79.653,-33.377C78.741,-28.82 77.407,-23.286 75.649,-16.776L121.205,-16.776L121.205,-10.086L73.451,-10.086C70.652,-1.851 67.494,4.985 63.979,10.421ZM65.785,16.916L65.785,41.427L106.215,41.427L106.215,16.916L65.785,16.916Z" style="fill-rule:nonzero;"/>
    </g>
</svg>
