<?xml version="1.0" encoding="UTF-8" standalone="no"?>
<!DOCTYPE svg PUBLIC "-//W3C//DTD SVG 1.1//EN" "http://www.w3.org/Graphics/SVG/1.1/DTD/svg11.dtd">
<svg width="100%" height="100%" viewBox="0 0 100 100" version="1.1" xmlns="http://www.w3.org/2000/svg" xmlns:xlink="http://www.w3.org/1999/xlink" xml:space="preserve" style="fill-rule:evenodd;clip-rule:evenodd;stroke-linejoin:round;stroke-miterlimit:1.41421;">
    <g transform="matrix(1,0,0,1,-28.8535,39.8509)">
        <path d="M75.209,24.923C69.968,32.052 63.328,37.847 55.287,42.306L50.698,37.326C59.812,32.736 66.843,27.17 71.791,20.627L52.114,20.627L52.114,15.011L75.209,15.011L75.209,-2.274L81.703,-2.274L81.703,15.011L105.385,15.011L105.385,20.627L81.703,20.627L81.703,22.238C90.167,26.046 98.305,30.474 106.117,35.519L101.381,40.402C96.075,36.463 89.776,32.443 82.485,28.341C82.094,28.048 81.834,27.869 81.703,27.804L81.703,42.648L75.209,42.648L75.209,24.923ZM82.387,-25.663L111.196,-25.663L111.196,-19.852L82.387,-19.852L82.387,-10.575L123.793,-10.575L123.793,-4.569L33.803,-4.569L33.803,-10.575L51.381,-10.575L51.381,-27.274L58.461,-27.274L58.461,-10.575L75.112,-10.575L75.112,-34.94L82.387,-34.94L82.387,-25.663ZM48.403,44.796L109.145,44.796L109.145,-2.274L116.127,-2.274L116.127,55.002L109.145,55.002L109.145,50.802L48.403,50.802L48.403,55.002L41.323,55.002L41.323,-2.274L48.403,-2.274L48.403,44.796ZM63.979,14.718C61.375,9.966 58.543,6.059 55.483,3L60.707,-0.272C63.832,2.853 66.795,6.711 69.594,11.3L63.979,14.718ZM87.123,12.228C90.997,7.508 93.829,3.179 95.619,-0.76L101.821,1.73C99.086,6.678 95.978,11.04 92.494,14.816L87.123,12.228Z" style="fill-rule:nonzero;"/>
    </g>
</svg>
