<?xml version="1.0" encoding="UTF-8" standalone="no"?>
<!DOCTYPE svg PUBLIC "-//W3C//DTD SVG 1.1//EN" "http://www.w3.org/Graphics/SVG/1.1/DTD/svg11.dtd">
<svg width="100%" height="100%" viewBox="0 0 100 100" version="1.1" xmlns="http://www.w3.org/2000/svg" xmlns:xlink="http://www.w3.org/1999/xlink" xml:space="preserve" style="fill-rule:evenodd;clip-rule:evenodd;stroke-linejoin:round;stroke-miterlimit:1.41421;">
    <g transform="matrix(1,0,0,1,-28.8535,39.8509)">
        <path d="M48.842,6.613C45.685,17.908 41.616,27.511 36.635,35.421L32.436,28.195C39.011,19.113 44.203,7.052 48.012,-7.987L34.535,-7.987L34.535,-14.286L48.842,-14.286L48.842,-34.891L55.629,-34.891L55.629,-14.286L68.422,-14.286L68.422,-7.987L55.629,-7.987L55.629,0.021C60.317,3.699 64.776,7.557 69.008,11.593L65.2,17.502C62.4,14.018 59.21,10.519 55.629,7.004L55.629,55.002L48.842,55.002L48.842,6.613ZM74.721,20.724C72.41,22.124 70.213,23.361 68.129,24.435L63.93,19.259C74.347,14.051 83.266,7.606 90.688,-0.077C87.66,-3.104 84.503,-7.075 81.215,-11.991C77.83,-6.815 74.103,-2.274 70.034,1.632L65.639,-3.25C74.558,-12.105 80.711,-22.619 84.096,-34.793L90.59,-32.987C89.353,-29.113 88.718,-27.144 88.686,-27.079L110.805,-27.079L114.418,-23.954C109.601,-13.993 104.669,-6.099 99.623,-0.272C106.98,5.783 115.313,10.714 124.623,14.523L120.034,20.968C118.145,20.057 116.469,19.211 115.004,18.429L114.125,17.941L114.125,55.002L107.241,55.002L107.241,50.021L81.606,50.021L81.606,55.002L74.721,55.002L74.721,20.724ZM79.213,17.843L114.028,17.843L112.026,16.769C106.101,13.351 100.567,9.282 95.424,4.562C91.713,8.533 86.31,12.961 79.213,17.843ZM107.241,23.849L81.606,23.849L81.606,43.918L107.241,43.918L107.241,23.849ZM86.196,-21.073C85.707,-20.129 85.105,-18.892 84.389,-17.362C87.188,-13.163 90.672,-8.931 94.838,-4.666C98.614,-9.224 102.146,-14.692 105.434,-21.073L86.196,-21.073Z" style="fill-rule:nonzero;"/>
    </g>
</svg>
