<?xml version="1.0" encoding="UTF-8" standalone="no"?>
<!DOCTYPE svg PUBLIC "-//W3C//DTD SVG 1.1//EN" "http://www.w3.org/Graphics/SVG/1.1/DTD/svg11.dtd">
<svg width="100%" height="100%" viewBox="0 0 100 100" version="1.1" xmlns="http://www.w3.org/2000/svg" xmlns:xlink="http://www.w3.org/1999/xlink" xml:space="preserve" style="fill-rule:evenodd;clip-rule:evenodd;stroke-linejoin:round;stroke-miterlimit:1.41421;">
    <g transform="matrix(1,0,0,1,-28.8535,39.8509)">
        <path d="M114.125,-20.389L114.125,44.504C114.125,47.629 113.23,49.793 111.44,50.998C109.975,52.072 107.403,52.609 103.725,52.609C98.093,52.609 93.292,52.381 89.321,51.925L88.198,43.82C93.211,44.666 97.979,45.089 102.504,45.089C105.304,45.089 106.703,43.592 106.703,40.597L106.703,-20.389L57.485,-20.389L57.485,-26.981L122.914,-26.981L122.914,-20.389L114.125,-20.389ZM95.326,-6.766L95.326,28.83L72.914,28.83L72.914,36.642L66.03,36.642L66.03,-6.766L95.326,-6.766ZM72.914,-0.467L72.914,22.531L88.442,22.531L88.442,-0.467L72.914,-0.467ZM52.114,-12.186C47.621,-17.394 42.934,-21.886 38.051,-25.663L42.836,-31.18C47.524,-27.99 52.325,-23.693 57.241,-18.289L52.114,-12.186ZM50.649,10.91C46.189,5.669 41.323,1.177 36.049,-2.567L40.834,-8.28C46.043,-4.732 51.104,-0.304 56.02,5.002L50.649,10.91ZM34.438,47.921C40.883,39.718 46.677,29.79 51.821,18.136L57.241,23.8C51.479,36.105 45.88,46.278 40.444,54.318L34.438,47.921Z" style="fill-rule:nonzero;"/>
    </g>
</svg>
