<?xml version="1.0" encoding="UTF-8" standalone="no"?>
<!DOCTYPE svg PUBLIC "-//W3C//DTD SVG 1.1//EN" "http://www.w3.org/Graphics/SVG/1.1/DTD/svg11.dtd">
<svg width="100%" height="100%" viewBox="0 0 100 100" version="1.1" xmlns="http://www.w3.org/2000/svg" xmlns:xlink="http://www.w3.org/1999/xlink" xml:space="preserve" style="fill-rule:evenodd;clip-rule:evenodd;stroke-linejoin:round;stroke-miterlimit:1.41421;">
    <g transform="matrix(1,0,0,1,-28.8535,39.8509)">
        <path d="M74.916,-8.768L74.916,-21.268L34.731,-21.268L34.731,-27.86L122.524,-27.86L122.524,-21.268L81.996,-21.268L81.996,-8.768L117.739,-8.768L117.739,45.529C117.739,48.231 117.234,50.233 116.225,51.535C114.955,53 112.53,53.732 108.95,53.732C104.848,53.732 100.47,53.52 95.815,53.097L94.301,45.724C98.533,46.408 102.618,46.75 106.557,46.75C109.226,46.75 110.561,45.545 110.561,43.136L110.561,-2.469L81.996,-2.469L81.996,51.535L74.916,51.535L74.916,-2.469L46.987,-2.469L46.987,55.002L39.809,55.002L39.809,-8.768L74.916,-8.768ZM66.713,39.035C61.993,34.087 56.736,29.823 50.942,26.242L55.239,21.212C60.479,24.175 65.818,28.211 71.254,33.322L66.713,39.035ZM65.639,19.504C60.854,14.751 56.02,10.763 51.137,7.541L55.532,2.707C61.131,6.352 66.03,10.226 70.229,14.328L65.639,19.504ZM100.746,19.406C96.091,14.783 91.127,10.796 85.854,7.443L90.151,2.511C95.326,5.571 100.291,9.477 105.043,14.23L100.746,19.406ZM101.723,38.595C97.068,33.973 91.909,29.806 86.244,26.095L90.444,21.212C96.596,24.923 101.853,28.96 106.215,33.322L101.723,38.595Z" style="fill-rule:nonzero;"/>
    </g>
</svg>
