<?xml version="1.0" encoding="UTF-8" standalone="no"?>
<!DOCTYPE svg PUBLIC "-//W3C//DTD SVG 1.1//EN" "http://www.w3.org/Graphics/SVG/1.1/DTD/svg11.dtd">
<svg width="100%" height="100%" viewBox="0 0 100 100" version="1.1" xmlns="http://www.w3.org/2000/svg" xmlns:xlink="http://www.w3.org/1999/xlink" xml:space="preserve" style="fill-rule:evenodd;clip-rule:evenodd;stroke-linejoin:round;stroke-miterlimit:1.41421;">
    <g transform="matrix(1,0,0,1,-28.8535,39.8509)">
        <path d="M62.172,26.437C57.55,21.424 52.976,17.16 48.451,13.644C45.75,17.941 42.413,22.075 38.442,26.046L33.657,21.261C44.236,9.673 50.877,-4.341 53.578,-20.78L53.676,-21.366L35.951,-21.366L35.951,-27.86L121.742,-27.86L121.742,-21.366L92.153,-21.366L92.153,10.031C100.844,5.343 108.266,0.005 114.418,-5.985L120.912,-0.663C112.742,6.076 103.155,12.147 92.153,17.55L92.153,39.962C92.153,42.469 93.113,43.983 95.034,44.504C96.498,44.829 98.826,44.992 102.016,44.992C109.763,44.992 114.044,43.934 114.858,41.818C115.574,39.8 116.03,34.966 116.225,27.316L123.94,29.855C123.549,40.5 122.41,46.847 120.522,48.898C118.406,51.242 111.944,52.414 101.137,52.414C95.245,52.414 91.144,51.811 88.832,50.607C86.261,49.305 84.975,46.587 84.975,42.453L84.975,-21.366L60.854,-21.366C60.756,-20.942 60.659,-20.21 60.561,-19.168C60.007,-16.043 58.998,-11.974 57.534,-6.961L75.746,-6.961L79.848,-3.885C77.374,10.535 73.24,22.482 67.446,31.955C61.554,41.427 52.52,49.061 40.346,54.855L35.366,48.752C47.052,43.966 55.987,36.528 62.172,26.437ZM65.639,19.943C68.666,13.4 70.766,6.532 71.938,-0.663L55.434,-0.663C54.392,2.17 53.074,5.197 51.479,8.42C56.85,12.033 61.57,15.874 65.639,19.943Z" style="fill-rule:nonzero;"/>
    </g>
</svg>
