<?xml version="1.0" encoding="UTF-8" standalone="no"?>
<!DOCTYPE svg PUBLIC "-//W3C//DTD SVG 1.1//EN" "http://www.w3.org/Graphics/SVG/1.1/DTD/svg11.dtd">
<svg width="100%" height="100%" viewBox="0 0 100 100" version="1.1" xmlns="http://www.w3.org/2000/svg" xmlns:xlink="http://www.w3.org/1999/xlink" xml:space="preserve" style="fill-rule:evenodd;clip-rule:evenodd;stroke-linejoin:round;stroke-miterlimit:1.41421;">
    <g transform="matrix(1,0,0,1,-28.8535,39.8509)">
        <path d="M83.803,-10.575L74.916,-10.575C72.084,-3.185 68.341,3.618 63.686,9.836L57.778,4.709C65.558,-5.545 70.896,-18.11 73.793,-32.987L81.215,-31.571C80.043,-26.46 78.741,-21.626 77.309,-17.069L115.395,-17.069L120.082,-13.358C115.558,-2.681 110.691,6.206 105.483,13.302L98.891,9.25C103.871,3.097 107.843,-3.511 110.805,-10.575L91.225,-10.575L91.225,-2.957C91.225,16.606 101.821,33.127 123.012,46.603L117.592,53.537C101.804,43.38 91.974,30.115 88.1,13.742C86.798,21.88 84.698,28.504 81.801,33.615C76.723,42.469 69.122,49.809 58.998,55.636L54.018,49.142C73.875,39.149 83.803,21.278 83.803,-4.471L83.803,-10.575ZM51.284,-1.981C46.303,-9.11 41.469,-14.806 36.782,-19.071L42.592,-24.295C48.126,-19.347 53.123,-13.976 57.582,-8.182L51.284,-1.981ZM33.901,44.113C40.769,36.951 47.41,27.821 53.823,16.72L59.291,22.14C52.716,33.794 46.189,43.38 39.711,50.9L33.901,44.113Z" style="fill-rule:nonzero;"/>
    </g>
</svg>
