<?xml version="1.0" encoding="UTF-8" standalone="no"?>
<!DOCTYPE svg PUBLIC "-//W3C//DTD SVG 1.1//EN" "http://www.w3.org/Graphics/SVG/1.1/DTD/svg11.dtd">
<svg width="100%" height="100%" viewBox="0 0 100 100" version="1.1" xmlns="http://www.w3.org/2000/svg" xmlns:xlink="http://www.w3.org/1999/xlink" xml:space="preserve" style="fill-rule:evenodd;clip-rule:evenodd;stroke-linejoin:round;stroke-miterlimit:1.41421;">
    <g transform="matrix(1,0,0,1,-28.8535,39.8509)">
        <path d="M51.918,-12.381L51.918,1.73L68.813,1.73C68.715,23.052 67.983,38.254 66.616,47.336C65.932,52.056 63.1,54.416 58.119,54.416C54.734,54.416 51.804,54.22 49.33,53.83L48.354,46.798C50.893,47.482 53.513,47.824 56.215,47.824C58.559,47.824 59.926,46.522 60.317,43.918C61.326,37.733 62.026,25.705 62.416,7.834L51.821,7.834C51.43,16.655 50.567,24.191 49.233,30.441C47.149,39.295 43.015,47.759 36.83,55.832L32.631,50.021C38.067,43.087 41.632,35.259 43.325,26.535C44.724,19.536 45.424,10.601 45.424,-0.272L45.424,-12.381L34.242,-12.381L34.242,-18.68L49.037,-18.68L49.037,-34.989L55.922,-34.989L55.922,-18.68L70.326,-18.68L70.326,-13.455C73.549,-19.217 76.414,-26.558 78.92,-35.477L85.61,-33.768C84.568,-30.09 83.347,-26.655 81.948,-23.465L122.524,-23.465L122.524,-17.655L79.213,-17.655C76.967,-12.349 73.777,-6.815 69.643,-1.053L65.346,-6.18C66.681,-7.873 68.113,-9.94 69.643,-12.381L51.918,-12.381ZM81.655,31.125L81.655,-1.248L74.135,-1.248L74.135,-6.668L81.655,-6.668L81.655,-15.164L88.051,-15.164L88.051,-6.668L104.848,-6.668L104.848,-15.164L111.147,-15.164L111.147,-6.668L120.424,-6.668L120.424,-1.248L111.147,-1.248L111.147,31.125L124.233,31.125L124.233,36.74L70.473,36.74L70.473,31.125L81.655,31.125ZM88.051,31.125L104.848,31.125L104.848,23.654L88.051,23.654L88.051,31.125ZM88.051,18.332L104.848,18.332L104.848,11.252L88.051,11.252L88.051,18.332ZM88.051,5.929L104.848,5.929L104.848,-1.248L88.051,-1.248L88.051,5.929ZM69.35,51.339C76.446,47.629 82.403,43.055 87.221,37.619L92.739,41.72C87.27,47.808 81.166,52.869 74.428,56.906L69.35,51.339ZM118.715,55.636C113.181,50.363 106.817,45.627 99.623,41.427L104.555,37.13C112.27,41.427 118.731,45.789 123.94,50.216L118.715,55.636Z" style="fill-rule:nonzero;"/>
    </g>
</svg>
