<?xml version="1.0" encoding="UTF-8" standalone="no"?>
<!DOCTYPE svg PUBLIC "-//W3C//DTD SVG 1.1//EN" "http://www.w3.org/Graphics/SVG/1.1/DTD/svg11.dtd">
<svg width="100%" height="100%" viewBox="0 0 100 100" version="1.1" xmlns="http://www.w3.org/2000/svg" xmlns:xlink="http://www.w3.org/1999/xlink" xml:space="preserve" style="fill-rule:evenodd;clip-rule:evenodd;stroke-linejoin:round;stroke-miterlimit:1.41421;">
    <g transform="matrix(1,0,0,1,-28.8535,39.8509)">
        <path d="M97.133,29.416L120.229,29.416L120.229,35.812L64.174,35.812L64.174,29.416L73.5,29.416L73.5,-7.352L80.092,-7.352L80.092,29.416L90.444,29.416L90.444,-18.485C84.78,-17.508 77.504,-16.629 68.617,-15.848L65.883,-21.854C84.112,-23.579 99.428,-26.444 111.83,-30.448L117.25,-24.344C109.698,-22.261 102.992,-20.698 97.133,-19.657L97.133,-0.37L117.25,-0.37L117.25,5.734L97.133,5.734L97.133,29.416ZM65.541,-0.565C64.923,14.279 62.188,26.502 57.338,36.105C61.244,39.816 66.339,42.42 72.621,43.918C78.839,45.317 88.312,46.017 101.039,46.017C106.996,46.017 114.988,45.757 125.014,45.236C123.81,47.742 122.979,50.233 122.524,52.707C116.339,52.967 110.61,53.097 105.336,53.097C87.921,53.097 75.551,51.925 68.227,49.582C62.27,47.759 57.501,45.203 53.92,41.916C49.851,47.97 45.18,52.772 39.907,56.32L35.024,51.095C40.916,47.222 45.717,42.534 49.428,37.033C45.131,31.532 41.827,24.858 39.516,17.013L45.131,14.914C46.889,20.74 49.461,26.046 52.846,30.832C55.808,24.321 57.729,15.89 58.608,5.539L48.11,5.539C48.045,5.669 47.882,5.929 47.621,6.32C47.166,7.166 45.994,9.071 44.106,12.033L38.002,9.445C44.968,-1.004 50.47,-11.649 54.506,-22.489L35.317,-22.489L35.317,-28.788L59.731,-28.788L63.1,-25.809C59.226,-16.141 55.369,-7.726 51.528,-0.565L65.541,-0.565Z" style="fill-rule:nonzero;"/>
    </g>
</svg>
