<?xml version="1.0" encoding="UTF-8" standalone="no"?>
<!DOCTYPE svg PUBLIC "-//W3C//DTD SVG 1.1//EN" "http://www.w3.org/Graphics/SVG/1.1/DTD/svg11.dtd">
<svg width="100%" height="100%" viewBox="0 0 100 100" version="1.1" xmlns="http://www.w3.org/2000/svg" xmlns:xlink="http://www.w3.org/1999/xlink" xml:space="preserve" style="fill-rule:evenodd;clip-rule:evenodd;stroke-linejoin:round;stroke-miterlimit:1.41421;">
    <g transform="matrix(1,0,0,1,-28.8535,39.8509)">
        <path d="M116.225,-27.079L116.225,42.99C116.225,45.985 115.688,48.166 114.614,49.533C113.312,51.323 110.545,52.218 106.313,52.218C101.202,52.218 95.668,51.99 89.711,51.535L88.344,43.722C94.269,44.438 99.656,44.796 104.506,44.796C107.241,44.796 108.608,43.608 108.608,41.232L108.608,14.914L48.842,14.914L48.842,53.634L41.225,53.634L41.225,-27.079L116.225,-27.079ZM48.842,-20.194L48.842,8.224L74.819,8.224L74.819,-20.194L48.842,-20.194ZM108.608,8.224L108.608,-20.194L82.143,-20.194L82.143,8.224L108.608,8.224Z" style="fill-rule:nonzero;"/>
    </g>
</svg>
