<?xml version="1.0" encoding="UTF-8" standalone="no"?>
<!DOCTYPE svg PUBLIC "-//W3C//DTD SVG 1.1//EN" "http://www.w3.org/Graphics/SVG/1.1/DTD/svg11.dtd">
<svg width="100%" height="100%" viewBox="0 0 100 100" version="1.1" xmlns="http://www.w3.org/2000/svg" xmlns:xlink="http://www.w3.org/1999/xlink" xml:space="preserve" style="fill-rule:evenodd;clip-rule:evenodd;stroke-linejoin:round;stroke-miterlimit:1.41421;">
    <g transform="matrix(1,0,0,1,-28.8535,39.8509)">
        <path d="M107.631,36.74C110.431,33.452 112.693,29.92 114.418,26.144L119.643,29.074C116.909,34.347 113.865,38.774 110.512,42.355C112.823,45.513 114.532,47.091 115.639,47.091C116.616,47.091 117.511,43.934 118.325,37.619L123.842,41.232C122.117,50.086 119.903,54.513 117.201,54.513C115.639,54.513 113.474,53.472 110.707,51.388C109.08,50.086 107.582,48.459 106.215,46.505C102.276,49.761 97.638,52.658 92.299,55.197L88.198,49.63C93.927,47.808 98.94,45.008 103.237,41.232C101.251,37.358 99.851,32.231 99.037,25.851L98.94,24.826L85.317,24.826L85.317,32.052C88.604,31.532 92.136,30.832 95.912,29.953L96.401,34.64C93.406,35.487 89.939,36.317 86,37.13L85.317,37.326L85.317,49.337C85.317,51.453 84.91,52.902 84.096,53.683C83.347,54.562 81.622,55.002 78.92,55.002C76.511,55.002 73.907,54.839 71.108,54.513L69.936,48.312C72.247,48.833 74.347,49.093 76.235,49.093C78.025,49.093 78.92,48.231 78.92,46.505L78.92,38.449C76.446,38.872 72.475,39.425 67.006,40.109L65.2,34.347C69.399,34.119 73.972,33.68 78.92,33.029L78.92,25.461L65.004,25.461L65.004,20.041L78.92,20.041L78.92,14.425C75.893,14.914 72.556,15.304 68.91,15.597L66.616,10.714C75.958,9.803 83.819,8.306 90.2,6.222L94.106,11.105C91.404,11.854 88.474,12.554 85.317,13.205L85.317,19.406L98.5,19.406C98.305,17.03 98.142,12.798 98.012,6.711L104.018,6.711C104.148,11.789 104.278,15.565 104.409,18.039L104.506,18.82L123.598,18.82L123.598,24.337L104.897,24.337C105.418,29.188 106.329,33.322 107.631,36.74ZM62.319,21.701L62.319,50.021L42.69,50.021L42.69,55.002L36.391,55.002L36.391,21.701L62.319,21.701ZM42.69,27.511L42.69,44.211L55.922,44.211L55.922,27.511L42.69,27.511ZM80.825,-25.174C79.555,-28.071 78.155,-30.708 76.625,-33.084L82.729,-35.086C84.584,-32.287 86.147,-28.983 87.416,-25.174L98.891,-25.174C100.909,-28.657 102.374,-32.026 103.285,-35.282L110.024,-33.28C108.819,-30.643 107.387,-27.941 105.727,-25.174L120.619,-25.174L120.619,-19.852L96.596,-19.852L96.596,-13.602L117.104,-13.602L117.104,-8.524L96.596,-8.524L96.596,-1.688L122.817,-1.688L122.817,3.83L65.688,3.83L65.688,-1.688L90.2,-1.688L90.2,-8.524L70.229,-8.524L70.229,-13.602L90.2,-13.602L90.2,-19.852L67.104,-19.852L67.104,-25.174L80.825,-25.174ZM37.709,-30.789L61.391,-30.789L61.391,-24.784L37.709,-24.784L37.709,-30.789ZM33.705,-17.704L64.614,-17.704L64.614,-11.6L33.705,-11.6L33.705,-17.704ZM37.709,-4.471L61.391,-4.471L61.391,1.535L37.709,1.535L37.709,-4.471ZM37.709,8.615L61.391,8.615L61.391,14.621L37.709,14.621L37.709,8.615ZM113.1,17.843C111.049,13.937 108.917,10.731 106.703,8.224L111.684,5.832C114.809,9.445 117.088,12.537 118.52,15.109L113.1,17.843Z" style="fill-rule:nonzero;"/>
    </g>
</svg>
