<?xml version="1.0" encoding="UTF-8" standalone="no"?>
<!DOCTYPE svg PUBLIC "-//W3C//DTD SVG 1.1//EN" "http://www.w3.org/Graphics/SVG/1.1/DTD/svg11.dtd">
<svg width="100%" height="100%" viewBox="0 0 100 100" version="1.1" xmlns="http://www.w3.org/2000/svg" xmlns:xlink="http://www.w3.org/1999/xlink" xml:space="preserve" style="fill-rule:evenodd;clip-rule:evenodd;stroke-linejoin:round;stroke-miterlimit:1.41421;">
    <g transform="matrix(1,0,0,1,-28.8535,39.8509)">
        <path d="M61.293,-21.17L76.235,-21.17L76.235,17.843L46.401,17.843L46.401,41.867C53.627,39.653 60.268,37.212 66.323,34.543C64.076,30.408 61.83,26.714 59.584,23.459L65.639,20.529C70.131,26.844 74.428,34.25 78.53,42.746L72.328,47.043C71.417,44.959 70.326,42.567 69.057,39.865L66.811,40.841C56.817,45.399 46.677,49.403 36.391,52.853L33.022,45.822C34.356,45.464 35.821,45.057 37.416,44.601C38.751,44.211 39.516,43.999 39.711,43.966L39.711,-21.17L54.506,-21.17L54.506,-34.989L61.293,-34.989L61.293,-21.17ZM69.741,11.837L69.741,0.949L46.401,0.949L46.401,11.837L69.741,11.837ZM69.741,-4.764L69.741,-15.262L46.401,-15.262L46.401,-4.764L69.741,-4.764ZM118.715,-28.69L118.715,46.896C118.715,51.779 115.981,54.22 110.512,54.22C105.89,54.22 101.772,53.992 98.159,53.537L97.035,46.31C101.332,47.059 105.401,47.433 109.242,47.433C111.228,47.433 112.221,46.424 112.221,44.406L112.221,22.043L92.446,22.043C91.86,35.617 87.563,46.945 79.555,56.027L74.33,50.998C79.278,45.366 82.55,39.507 84.145,33.42C85.349,28.927 85.951,23.361 85.951,16.72L85.951,-28.69L118.715,-28.69ZM112.221,-22.489L92.543,-22.489L92.543,-6.473L112.221,-6.473L112.221,-22.489ZM112.221,-0.467L92.543,-0.467L92.543,16.037L112.221,16.037L112.221,-0.467Z" style="fill-rule:nonzero;"/>
    </g>
</svg>
