<?xml version="1.0" encoding="UTF-8" standalone="no"?>
<!DOCTYPE svg PUBLIC "-//W3C//DTD SVG 1.1//EN" "http://www.w3.org/Graphics/SVG/1.1/DTD/svg11.dtd">
<svg width="100%" height="100%" viewBox="0 0 100 100" version="1.1" xmlns="http://www.w3.org/2000/svg" xmlns:xlink="http://www.w3.org/1999/xlink" xml:space="preserve" style="fill-rule:evenodd;clip-rule:evenodd;stroke-linejoin:round;stroke-miterlimit:1.41421;">
    <g transform="matrix(1,0,0,1,-28.8535,39.8509)">
        <path d="M59.096,-2.957L100.307,-2.957L100.307,3.537L58.705,3.537L58.705,-2.664C52.618,2.349 45.685,6.824 37.905,10.763L33.217,4.757C51.186,-3.999 64.76,-16.434 73.94,-32.547L82.534,-32.547C92.071,-18.192 106.101,-6.668 124.623,2.023L119.838,8.42C102.13,-0.663 88.328,-12.153 78.432,-26.053C73.289,-17.101 66.843,-9.403 59.096,-2.957ZM46.694,13.302L107.094,13.302L111.733,18.283C102.455,33.517 92.478,45.92 81.801,55.49L75.209,50.9C85.724,41.981 94.562,31.613 101.723,19.796L46.694,19.796L46.694,13.302Z" style="fill-rule:nonzero;"/>
    </g>
</svg>
