<?xml version="1.0" encoding="UTF-8" standalone="no"?>
<!DOCTYPE svg PUBLIC "-//W3C//DTD SVG 1.1//EN" "http://www.w3.org/Graphics/SVG/1.1/DTD/svg11.dtd">
<svg width="100%" height="100%" viewBox="0 0 100 100" version="1.1" xmlns="http://www.w3.org/2000/svg" xmlns:xlink="http://www.w3.org/1999/xlink" xml:space="preserve" style="fill-rule:evenodd;clip-rule:evenodd;stroke-linejoin:round;stroke-miterlimit:1.41421;">
    <g transform="matrix(1,0,0,1,-28.8535,39.8509)">
        <path d="M86.83,-14.579L121.401,-14.579L121.401,-7.694L87.416,-7.694L87.416,9.005C93.601,4.806 99.33,0.265 104.604,-4.618L110.317,-0.077C103.123,6.304 95.978,11.837 88.881,16.525L88.002,17.111L88.002,45.431C88.002,48.914 87.449,51.372 86.342,52.804C85.105,54.334 82.599,55.099 78.823,55.099C73.744,55.099 68.976,54.871 64.516,54.416L62.709,46.212C68.894,46.929 73.37,47.287 76.137,47.287C78.969,47.287 80.385,46.099 80.385,43.722L80.385,21.798C67.527,29.578 53.871,36.089 39.418,41.33L35.121,34.64C50.551,29.757 64.988,23.149 78.432,14.816L79.799,13.888L79.799,-7.694L37.221,-7.694L37.221,-14.579L79.213,-14.579L79.213,-32.401L86.83,-32.401L86.83,-14.579Z" style="fill-rule:nonzero;"/>
    </g>
</svg>
