<?xml version="1.0" encoding="UTF-8" standalone="no"?>
<!DOCTYPE svg PUBLIC "-//W3C//DTD SVG 1.1//EN" "http://www.w3.org/Graphics/SVG/1.1/DTD/svg11.dtd">
<svg width="100%" height="100%" viewBox="0 0 100 100" version="1.1" xmlns="http://www.w3.org/2000/svg" xmlns:xlink="http://www.w3.org/1999/xlink" xml:space="preserve" style="fill-rule:evenodd;clip-rule:evenodd;stroke-linejoin:round;stroke-miterlimit:1.41421;">
    <g transform="matrix(1,0,0,1,-28.8535,39.8509)">
        <path d="M55.483,-15.262L55.19,-15.848C53.497,-20.275 51.186,-24.816 48.256,-29.471L55.092,-32.45C57.859,-28.706 60.561,-23.84 63.198,-17.85L56.362,-15.262L90.395,-15.262C94.757,-21.284 98.468,-27.453 101.528,-33.768L109.096,-30.35C105.808,-24.849 102.341,-19.819 98.696,-15.262L119.399,-15.262L119.399,6.222L112.221,6.222L112.221,-9.061L45.571,-9.061L45.571,6.222L38.393,6.222L38.393,-15.262L55.483,-15.262ZM82.631,18.527L82.631,22.238L123.793,22.238L123.793,28.634L83.119,28.634L83.119,46.603C83.119,52.007 79.783,54.709 73.11,54.709C67.739,54.709 62.742,54.383 58.119,53.732L56.703,46.017C61.847,47.091 66.843,47.629 71.694,47.629C74.298,47.629 75.6,46.392 75.6,43.918L75.6,28.634L33.803,28.634L33.803,22.238L75.209,22.238L75.209,15.011L75.698,14.816C81.524,12.602 87.335,9.738 93.129,6.222L51.723,6.222L51.723,-0.077L103.139,-0.077L107.241,3.927C100.144,9.266 91.941,14.132 82.631,18.527ZM75.991,-15.604C74.037,-21.203 71.71,-26.265 69.008,-30.789L75.795,-33.67C78.595,-29.439 81.166,-24.344 83.51,-18.387L75.991,-15.604Z" style="fill-rule:nonzero;"/>
    </g>
</svg>
