<?xml version="1.0" encoding="UTF-8" standalone="no"?>
<!DOCTYPE svg PUBLIC "-//W3C//DTD SVG 1.1//EN" "http://www.w3.org/Graphics/SVG/1.1/DTD/svg11.dtd">
<svg width="100%" height="100%" viewBox="0 0 100 100" version="1.1" xmlns="http://www.w3.org/2000/svg" xmlns:xlink="http://www.w3.org/1999/xlink" xml:space="preserve" style="fill-rule:evenodd;clip-rule:evenodd;stroke-linejoin:round;stroke-miterlimit:1.41421;">
    <g transform="matrix(1,0,0,1,-28.8535,39.8509)">
        <path d="M86.635,-7.401L86.635,-16.092L58.412,-16.092L58.412,-22.293L86.635,-22.293L86.635,-34.891L93.52,-34.891L93.52,-22.293L122.28,-22.293L122.28,-16.092L93.52,-16.092L93.52,-7.401L116.909,-7.401L116.909,24.826L110.219,24.826L110.219,19.748L93.422,19.748C93.129,26.486 92.022,32.052 90.102,36.447C99.086,41.655 110.447,45.415 124.184,47.726L119.692,54.562C107.224,51.763 96.27,47.531 86.83,41.867C81.882,48.41 73.272,53.276 61,56.466L56.508,50.168C68.683,47.954 76.983,43.983 81.41,38.254C76.821,34.738 72.638,31.108 68.862,27.365L73.891,23.556C77.309,27.072 80.792,30.132 84.34,32.736C85.707,28.732 86.44,24.403 86.537,19.748L69.985,19.748L69.985,24.826L63.295,24.826L63.295,-7.401L86.635,-7.401ZM86.635,-1.395L69.985,-1.395L69.985,13.742L86.635,13.742L86.635,-1.395ZM93.52,-1.395L93.52,13.742L110.219,13.742L110.219,-1.395L93.52,-1.395ZM52.407,-10.868L52.407,55.002L45.522,55.002L45.522,3.927C42.853,8.712 40.053,13.14 37.123,17.209L33.315,11.105C42.267,-2.079 48.728,-17.541 52.7,-35.282L59.682,-33.573C57.306,-24.556 54.881,-16.987 52.407,-10.868Z" style="fill-rule:nonzero;"/>
    </g>
</svg>
