<?xml version="1.0" encoding="UTF-8" standalone="no"?>
<!DOCTYPE svg PUBLIC "-//W3C//DTD SVG 1.1//EN" "http://www.w3.org/Graphics/SVG/1.1/DTD/svg11.dtd">
<svg width="100%" height="100%" viewBox="0 0 100 100" version="1.1" xmlns="http://www.w3.org/2000/svg" xmlns:xlink="http://www.w3.org/1999/xlink" xml:space="preserve" style="fill-rule:evenodd;clip-rule:evenodd;stroke-linejoin:round;stroke-miterlimit:1.41421;">
    <g transform="matrix(1,0,0,1,-28.8535,39.8509)">
        <path d="M53.627,4.025L53.627,55.002L46.742,55.002L46.742,12.912C43.455,16.59 40.183,19.862 36.928,22.726L32.631,17.502C42.885,8.354 50.844,-2.437 56.508,-14.871L62.514,-11.893C60.203,-6.75 57.241,-1.444 53.627,4.025ZM86.147,-24.295L86.147,-34.989L93.032,-34.989L93.032,-24.295L114.418,-24.295L114.418,-10.184L123.305,-10.184L123.305,-4.373L114.418,-4.373L114.418,10.031L93.032,10.031L93.032,18.234L118.91,18.234L118.91,24.142L93.032,24.142L93.032,32.296L123.793,32.296L123.793,38.498L93.032,38.498L93.032,55.002L86.147,55.002L86.147,38.498L59.047,38.498L59.047,32.296L86.147,32.296L86.147,24.142L62.416,24.142L62.416,18.234L86.147,18.234L86.147,10.031L66.225,10.031L66.225,4.416L86.147,4.416L86.147,-4.373L62.416,-4.373L62.416,-10.184L86.147,-10.184L86.147,-18.68L66.225,-18.68L66.225,-24.295L86.147,-24.295ZM107.729,-18.68L93.032,-18.68L93.032,-10.184L107.729,-10.184L107.729,-18.68ZM107.729,-4.373L93.032,-4.373L93.032,4.416L107.729,4.416L107.729,-4.373ZM33.315,-10.184C42.722,-16.955 49.884,-24.718 54.799,-33.475L61.196,-30.057C54.295,-19.38 46.498,-10.982 37.807,-4.862L33.315,-10.184Z" style="fill-rule:nonzero;"/>
    </g>
</svg>
