<?xml version="1.0" encoding="UTF-8" standalone="no"?>
<!DOCTYPE svg PUBLIC "-//W3C//DTD SVG 1.1//EN" "http://www.w3.org/Graphics/SVG/1.1/DTD/svg11.dtd">
<svg width="100%" height="100%" viewBox="0 0 100 100" version="1.1" xmlns="http://www.w3.org/2000/svg" xmlns:xlink="http://www.w3.org/1999/xlink" xml:space="preserve" style="fill-rule:evenodd;clip-rule:evenodd;stroke-linejoin:round;stroke-miterlimit:1.41421;">
    <g transform="matrix(1,0,0,1,-28.8535,39.8509)">
        <path d="M51.137,0.705L50.551,-0.077C45.961,-6.164 41.257,-11.34 36.44,-15.604L41.225,-20.682C43.08,-18.827 44.448,-17.394 45.326,-16.385C49.233,-21.952 52.765,-28.153 55.922,-34.989L62.514,-31.961C59.487,-26.167 55.06,-19.51 49.233,-11.991C51.153,-9.679 53.09,-7.205 55.043,-4.569C59.308,-10.461 63.328,-16.694 67.104,-23.27L73.5,-19.803C66.176,-8.54 59.259,0.672 52.748,7.834L58.022,7.541C62.319,7.215 66.111,6.906 69.399,6.613C68.617,4.855 67.185,2.186 65.102,-1.395L70.815,-4.178C74.688,1.844 78.058,8.55 80.922,15.939L74.623,19.504C74.2,18.332 73.224,15.662 71.694,11.496C69.155,12.017 65.33,12.586 60.219,13.205L60.219,55.002L53.53,55.002L53.53,14.035L51.918,14.132C45.115,14.783 39.955,15.207 36.44,15.402L34.242,8.712L40.541,8.42L45.034,8.224L45.619,7.541C47.247,5.587 49.086,3.309 51.137,0.705ZM90.151,9.103L90.151,40.89C90.151,43.006 90.72,44.308 91.86,44.796C93.162,45.415 96.091,45.724 100.649,45.724C107.289,45.724 111.456,45.366 113.149,44.65C114.614,43.934 115.541,42.127 115.932,39.23C116.323,36.007 116.55,32.264 116.616,28L123.744,29.709C123.419,40.874 122.182,47.547 120.034,49.728C118.08,51.649 111.879,52.609 101.43,52.609C92.999,52.609 87.905,52.072 86.147,50.998C84.226,49.891 83.266,47.694 83.266,44.406L83.266,2.707L111.733,2.707L111.733,-22.196L79.75,-22.196L79.75,-28.592L118.422,-28.592L118.422,14.523L111.733,14.523L111.733,9.103L90.151,9.103ZM35.951,44.699C38.556,37.83 40.379,29.806 41.42,20.627L48.061,21.505C46.824,32.703 44.985,41.574 42.543,48.117L35.951,44.699ZM70.131,43.527C68.862,35.194 66.795,27.625 63.93,20.822L69.838,18.918C72.931,25.428 75.437,32.736 77.358,40.841L70.131,43.527Z" style="fill-rule:nonzero;"/>
    </g>
</svg>
