<?xml version="1.0" encoding="UTF-8" standalone="no"?>
<!DOCTYPE svg PUBLIC "-//W3C//DTD SVG 1.1//EN" "http://www.w3.org/Graphics/SVG/1.1/DTD/svg11.dtd">
<svg width="100%" height="100%" viewBox="0 0 100 100" version="1.1" xmlns="http://www.w3.org/2000/svg" xmlns:xlink="http://www.w3.org/1999/xlink" xml:space="preserve" style="fill-rule:evenodd;clip-rule:evenodd;stroke-linejoin:round;stroke-miterlimit:1.41421;">
    <g transform="matrix(1,0,0,1,-28.8535,39.8509)">
        <path d="M81.264,-10.282L114.321,-10.282L114.321,13.107L81.264,13.107L81.264,-10.282ZM107.826,-4.471L87.758,-4.471L87.758,7.296L107.826,7.296L107.826,-4.471ZM59.047,-22.293L59.047,-4.959L69.448,-4.959L69.448,23.019L59.047,23.019L59.047,42.941L71.352,42.941L71.352,49.142L43.227,49.142L43.227,55.05L36.635,55.05L36.635,-28.397L71.352,-28.397L71.352,-22.293L59.047,-22.293ZM52.748,-22.293L43.227,-22.293L43.227,-4.959L52.748,-4.959L52.748,-22.293ZM63.246,0.754L43.227,0.754L43.227,17.209L63.246,17.209L63.246,0.754ZM52.748,23.019L43.227,23.019L43.227,42.941L52.748,42.941L52.748,23.019ZM85.414,-23.465L122.817,-23.465L122.817,-17.459L83.022,-17.459C80.938,-12.674 78.139,-7.873 74.623,-3.055L69.643,-7.743C74.949,-14.676 78.953,-23.612 81.655,-34.549L88.442,-32.791C87.433,-29.373 86.423,-26.265 85.414,-23.465ZM95.229,19.015L95.229,54.513L89.125,54.513L89.125,50.509L79.848,50.509L79.848,55.002L73.647,55.002L73.647,19.015L95.229,19.015ZM79.848,24.826L79.848,44.699L89.125,44.699L89.125,24.826L79.848,24.826ZM122.231,19.015L122.231,55.002L116.03,55.002L116.03,50.509L106.459,50.509L106.459,55.002L100.356,55.002L100.356,19.015L122.231,19.015ZM106.459,24.826L106.459,44.699L116.03,44.699L116.03,24.826L106.459,24.826Z" style="fill-rule:nonzero;"/>
    </g>
</svg>
