<?xml version="1.0" encoding="UTF-8" standalone="no"?>
<!DOCTYPE svg PUBLIC "-//W3C//DTD SVG 1.1//EN" "http://www.w3.org/Graphics/SVG/1.1/DTD/svg11.dtd">
<svg width="100%" height="100%" viewBox="0 0 100 100" version="1.1" xmlns="http://www.w3.org/2000/svg" xmlns:xlink="http://www.w3.org/1999/xlink" xml:space="preserve" style="fill-rule:evenodd;clip-rule:evenodd;stroke-linejoin:round;stroke-miterlimit:1.41421;">
    <g transform="matrix(1,0,0,1,-28.8535,39.8509)">
        <path d="M82.289,1.632L82.289,13.498L116.371,13.498L116.371,19.894L82.289,19.894L82.289,45.041L121.352,45.041L121.352,51.535L36.342,51.535L36.342,45.041L74.867,45.041L74.867,19.894L41.371,19.894L41.371,13.498L74.867,13.498L74.867,1.632L57.241,1.632L57.241,-2.664C51.446,1.86 45.278,5.913 38.735,9.494L34.047,3.439C51.463,-4.829 64.728,-17.232 73.842,-33.768L82.582,-33.768C93.65,-18.729 107.55,-7.401 124.282,0.216L119.057,7.199C113.263,3.846 107.729,0.298 102.455,-3.446L102.455,1.632L82.289,1.632ZM100.844,-4.666C92.218,-11.144 84.731,-18.615 78.383,-27.079C73.891,-19.103 67.641,-11.633 59.633,-4.666L100.844,-4.666ZM57.534,43.332C55.776,37.309 53.204,31.271 49.819,25.216L56.703,22.336C59.405,26.665 62.286,32.72 65.346,40.5L57.534,43.332ZM92.006,41.134C95.75,34.787 98.761,28.244 101.039,21.505L108.705,24.435C106.069,30.718 102.813,37.082 98.94,43.527L92.006,41.134Z" style="fill-rule:nonzero;"/>
    </g>
</svg>
